<svg xmlns="http://www.w3.org/2000/svg" viewBox="0 0 255.31 201.54"><defs><style>.cls-1,.cls-6{fill:#43c3ce;stroke-miterlimit:10;}.cls-1,.cls-2,.cls-4,.cls-6{stroke:#000;}.cls-1,.cls-2{stroke-width:4px;}.cls-2,.cls-4{fill:none;stroke-linecap:round;stroke-linejoin:round;}.cls-3{fill:#f4a261;}.cls-4{stroke-width:5px;}.cls-5{fill:#fff;}.cls-6{stroke-width:3px;}</style></defs><g id="Calque_2" data-name="Calque 2"><g id="Capa_1" data-name="Capa 1"><rect class="cls-1" x="96.97" y="160.31" width="55.41" height="14" transform="translate(291.99 42.64) rotate(90)"/><rect class="cls-1" x="71.55" y="186.61" width="106.24" height="12.93" rx="3.06"/><path class="cls-2" d="M80.14,39.63H46.52a9.79,9.79,0,0,0-9.79,9.78v96.28a9.79,9.79,0,0,0,9.79,9.79H208.43a9.78,9.78,0,0,0,9.78-9.79V49.41a9.78,9.78,0,0,0-9.78-9.78H174.81"/><path class="cls-1" d="M36.73,135.91H218.21a0,0,0,0,1,0,0v13.62a5.95,5.95,0,0,1-5.95,5.95H42.68a5.95,5.95,0,0,1-5.95-5.95V135.91a0,0,0,0,1,0,0Z"/><path class="cls-3" d="M98.66,106.77a2,2,0,0,1-2-2V19.63a2,2,0,0,1,2-2h33.88a2,2,0,0,1,1.42.59L157.71,42a2,2,0,0,1,.5,2v60.81a2,2,0,0,1-2,2Z"/><path d="M132.54,19.63l23.75,23.76h-.08v61.38H98.66V19.63h33.88m0-4H98.66a4,4,0,0,0-4,4v85.14a4,4,0,0,0,4,4h57.55a4,4,0,0,0,4-4V44.21a4,4,0,0,0-1.09-3.65L135.37,16.8a4,4,0,0,0-2.83-1.17Z"/><polyline class="cls-4" points="132.54 18.2 132.54 40.01 156.29 40.01"/><rect class="cls-5" x="105.6" y="58.11" width="44.11" height="6.51" rx="1.98"/><rect class="cls-5" x="105.6" y="72.97" width="44.11" height="6.51" rx="1.98"/><rect class="cls-6" x="235.49" y="179.28" width="19.57" height="6.51" rx="3.26" transform="translate(547.78 138.17) rotate(135)"/><path class="cls-3" d="M221.47,190.57a5.22,5.22,0,0,1-3.72-1.54,5.28,5.28,0,0,1,0-7.43L244.34,155a5.25,5.25,0,0,1,7.43,0,5.26,5.26,0,0,1,0,7.43L225.19,189A5.22,5.22,0,0,1,221.47,190.57Z"/><path d="M248.06,155.48a3.25,3.25,0,0,1,2.3,5.55l-26.59,26.59a3.26,3.26,0,0,1-4.6,0,3.25,3.25,0,0,1,0-4.6l26.58-26.59a3.24,3.24,0,0,1,2.31-1m0-4a7.2,7.2,0,0,0-5.13,2.12l-26.59,26.59a7.25,7.25,0,0,0,10.26,10.26l26.59-26.59a7.25,7.25,0,0,0-5.13-12.38Z"/><rect class="cls-6" x="0.25" y="6.78" width="19.57" height="6.51" rx="3.26" transform="translate(-4.16 10.04) rotate(-45)"/><path class="cls-3" d="M7.25,39.1a5.25,5.25,0,0,1-3.71-9L30.12,3.54A5.25,5.25,0,1,1,37.55,11L11,37.56A5.23,5.23,0,0,1,7.25,39.1Z"/><path d="M33.84,4a3.26,3.26,0,0,1,2.3,5.56L9.55,36.14a3.21,3.21,0,0,1-2.3,1A3.26,3.26,0,0,1,5,31.54L31.54,5a3.26,3.26,0,0,1,2.3-1m0-4a7.17,7.17,0,0,0-5.13,2.13L2.12,28.71A7.25,7.25,0,1,0,12.38,39L39,12.39A7.27,7.27,0,0,0,39,2.13,7.17,7.17,0,0,0,33.84,0Z"/><rect class="cls-5" x="105.6" y="87.83" width="44.11" height="6.51" rx="1.98"/></g></g></svg>