<svg xmlns="http://www.w3.org/2000/svg" viewBox="0 0 219.48 211.2"><defs><style>.cls-1{fill:#f4a261;}.cls-1,.cls-2,.cls-3,.cls-4,.cls-5{stroke:#000;stroke-miterlimit:10;}.cls-1,.cls-2,.cls-3{stroke-width:4px;}.cls-2{fill:#fff;}.cls-3{fill:#43c3ce;}.cls-4,.cls-5{fill:none;stroke-width:6px;}.cls-5{stroke-dasharray:12.47 12.47;}</style></defs><g id="Calque_2" data-name="Calque 2"><g id="Capa_1" data-name="Capa 1"><path class="cls-1" d="M195.79,2l-1,0C178.55,2.68,169,20.67,177,34.84l15.06,26.62a4.3,4.3,0,0,0,7.48,0L214.6,34.84C222.61,20.67,213,2.68,196.78,2Z"/><circle class="cls-2" cx="195.79" cy="24.6" r="10.95"/><path class="cls-3" d="M23.69,147.56l-1,0c-16.26.66-25.84,18.65-17.83,32.82L20,207a4.3,4.3,0,0,0,7.48,0L42.5,180.4c8-14.17-1.56-32.16-17.82-32.82Z"/><circle class="cls-2" cx="23.69" cy="170.16" r="10.95"/><path class="cls-4" d="M155.82,32.82a58.91,58.91,0,0,0-5.65,2"/><path class="cls-5" d="M139.12,40.59c-15,9.88-28.69,29.79,14.65,63.21,55.3,42.63-42.23,60.58-77.71,65.52"/><path class="cls-4" d="M69.86,170.14c-3.76.47-6,.68-6,.68"/></g></g></svg>