<svg xmlns="http://www.w3.org/2000/svg" viewBox="0 0 230.76 166.81"><defs><style>.cls-1,.cls-5,.cls-6{fill:#f4a261;}.cls-1,.cls-2,.cls-3,.cls-5,.cls-6,.cls-7{stroke:#000;stroke-miterlimit:10;}.cls-1{stroke-width:2px;}.cls-2,.cls-3,.cls-7{fill:#43c3ce;}.cls-2{stroke-width:4px;}.cls-3,.cls-5{stroke-width:3px;}.cls-4{fill:#fff;}.cls-6,.cls-7{stroke-width:0.5px;}</style></defs><g id="Calque_2" data-name="Calque 2"><g id="Capa_1" data-name="Capa 1"><polygon class="cls-1" points="73.1 93.02 62.11 70.75 54.33 70.75 45.89 49.14 38.75 70.75 27.45 70.75 27.45 66.75 35.86 66.75 45.58 37.33 57.06 66.75 64.59 66.75 72.5 82.75 78.84 64.87 97.39 64.86 107.11 35.44 118.59 64.86 126.13 64.86 134.03 80.86 140.37 62.98 158.93 62.98 168.64 33.56 180.12 62.98 186.35 62.98 190.3 62.71 190.57 66.7 186.41 66.98 177.39 66.98 168.96 45.37 161.82 66.98 143.19 66.97 134.63 91.12 123.64 68.86 115.86 68.86 107.42 47.24 100.29 68.86 81.66 68.87 73.1 93.02"/><path class="cls-2" d="M194.51,2H20.94A12.38,12.38,0,0,0,8.56,14.38v115.5H206.89V14.38A12.38,12.38,0,0,0,194.51,2Zm-5.69,103.32a6.34,6.34,0,0,1-6.34,6.34H32.91a6.34,6.34,0,0,1-6.34-6.34V26.79a6.33,6.33,0,0,1,6.34-6.33H182.48a6.33,6.33,0,0,1,6.34,6.33Z"/><path class="cls-2" d="M2,125.84H214.43a0,0,0,0,1,0,0v6.74a16.34,16.34,0,0,1-16.34,16.34H18.34A16.34,16.34,0,0,1,2,132.57v-6.74a0,0,0,0,1,0,0Z"/><path class="cls-3" d="M227.31,162.29c-2.53,3.12-7.17,4.36-10.14,1.1l-34.25-36.77c-5.72-6,4.9-15.87,10.45-9.73l34.25,36.77A6.1,6.1,0,0,1,227.31,162.29Z"/><circle class="cls-4" cx="165.71" cy="93.7" r="31.62"/><path class="cls-5" d="M165.37,53.54c-52.45.9-52.44,78.91,0,79.8C217.82,132.44,217.81,54.43,165.37,53.54Zm3,69.39c-38.69,3.72-44.5-54.82-6.05-59C201,60.23,206.84,118.77,168.4,122.93Z"/><path class="cls-6" d="M185.18,83.61l-2.32-.56-.06-.22c1.34-1.43,2.64-1.75,1-3.74-.32-.72-2.47.42-3,.43a1.21,1.21,0,0,0-.16-.16c.45-1.91,1.41-2.84-1-3.76-.63-.47-1.93,1.6-2.34,1.85a2,2,0,0,0-.23-.06c-.57-1.88-.19-3.16-2.72-2.77-.78-.09-.87,2.35-1.1,2.77l-.23.06c-1.43-1.34-1.75-2.64-3.74-1-.72.31.43,2.47.43,3,0,0-.1.11-.16.16-1.91-.44-2.84-1.41-3.76,1-.47.63,1.6,1.92,1.85,2.33l-.06.23c-1.87.57-3.16.2-2.77,2.72-.09.78,2.35.87,2.77,1.1a2,2,0,0,0,.07.23c-1.34,1.43-2.64,1.75-1,3.74.31.72,2.47-.43,2.95-.43l.17.16c-.45,1.91-1.42,2.84,1,3.76.63.47,1.93-1.6,2.34-1.85l.22.06c.57,1.88.2,3.16,2.73,2.77.78.09.86-2.35,1.1-2.77l.22-.06c1.43,1.34,1.75,2.64,3.75,1,.72-.31-.43-2.47-.44-3l.17-.16c1.9.44,2.83,1.41,3.76-1,.46-.63-1.61-1.92-1.85-2.34l.06-.22c.42-.25,2.85-.39,2.76-1.16C185.54,85.26,185.94,83.72,185.18,83.61ZM179.76,85c.09,5.82-9,5.82-9,0C170.71,79.16,179.85,79.16,179.76,85Z"/><path class="cls-7" d="M168.24,101.12l-2.32-.56c0-.08,0-.15-.07-.23,1.34-1.43,2.64-1.75,1-3.74-.31-.72-2.47.43-2.95.43l-.17-.16c.45-1.91,1.41-2.84-1-3.76-.63-.47-1.93,1.6-2.34,1.85l-.23-.06c-.56-1.88-.19-3.16-2.72-2.77-.78-.09-.86,2.35-1.1,2.77l-.22.06c-1.43-1.34-1.75-2.64-3.75-1-.72.31.43,2.47.44,3l-.17.16c-1.9-.44-2.83-1.41-3.76,1-.46.63,1.61,1.92,1.85,2.34l-.06.22c-1.87.57-3.16.2-2.77,2.73-.08.78,2.36.86,2.77,1.09,0,.08,0,.16.07.23-1.34,1.43-2.64,1.75-1,3.74.31.72,2.47-.42,2.95-.43l.17.16c-.45,1.91-1.41,2.84,1,3.76.63.47,1.93-1.6,2.34-1.85a2,2,0,0,0,.23.06c.56,1.88.19,3.16,2.72,2.77.78.09.86-2.35,1.1-2.77l.22-.06c1.43,1.34,1.75,2.64,3.75,1,.72-.31-.43-2.47-.44-3l.17-.16c1.9.44,2.83,1.41,3.76-1,.47-.63-1.61-1.92-1.85-2.34l.06-.22c.42-.25,2.85-.39,2.77-1.15C168.59,102.76,169,101.22,168.24,101.12Zm-5.43,1.36c.09,5.81-9.05,5.81-9,0C153.76,96.66,162.9,96.66,162.81,102.48Z"/></g></g></svg>