<svg xmlns="http://www.w3.org/2000/svg" viewBox="0 0 210.57 186.49"><defs><style>.cls-1,.cls-7{fill:#43c3ce;}.cls-1,.cls-2,.cls-3,.cls-4{stroke:#000;stroke-miterlimit:10;stroke-width:4px;}.cls-2,.cls-5{fill:#fff;}.cls-3,.cls-6{fill:#f4a261;}.cls-4{fill:none;}</style></defs><g id="Calque_2" data-name="Calque 2"><g id="Capa_1" data-name="Capa 1"><rect class="cls-1" x="42.04" y="110.85" width="131.34" height="15.93" rx="6.6" transform="translate(226.53 11.11) rotate(90)"/><rect class="cls-2" x="2" y="2" width="206.57" height="136.05" rx="19.57"/><path class="cls-1" d="M2,113H208.57a0,0,0,0,1,0,0v5.53A19.57,19.57,0,0,1,189,138.05H21.57A19.57,19.57,0,0,1,2,118.49V113A0,0,0,0,1,2,113Z"/><rect class="cls-1" x="34.24" y="170.54" width="146.94" height="13.95" rx="6.47"/><rect class="cls-3" x="29.85" y="67.48" width="12.77" height="30.46"/><rect class="cls-3" x="42.61" y="63.8" width="12.77" height="34.15"/><rect class="cls-3" x="55.38" y="72.86" width="12.77" height="25.08"/><rect class="cls-3" x="68.14" y="56.57" width="12.77" height="41.37"/><rect class="cls-4" x="16.95" y="47.41" width="76.85" height="56.15"/><rect class="cls-3" x="105.13" y="56.57" width="93.1" height="46.99"/><rect class="cls-5" x="113.17" y="65.5" width="77.02" height="2.96"/><rect class="cls-5" x="113.17" y="72.04" width="77.02" height="2.96"/><rect class="cls-5" x="113.17" y="78.59" width="77.02" height="2.96"/><rect class="cls-5" x="113.17" y="85.13" width="77.02" height="2.96"/><rect class="cls-5" x="113.17" y="91.67" width="77.02" height="2.96"/><path class="cls-5" d="M168.94,29.55h19.9a19.89,19.89,0,0,1-34,14.07Z"/><path class="cls-6" d="M188.84,29.55h-19.9V9.65A19.9,19.9,0,0,1,188.84,29.55Z"/><path class="cls-7" d="M168.94,9.65v19.9L154.88,43.62h0a19.9,19.9,0,0,1,14.07-34Z"/><path class="cls-4" d="M154.87,43.62a19.9,19.9,0,1,1,14.07,5.83,19.85,19.85,0,0,1-14.07-5.83"/><polyline class="cls-4" points="168.94 9.65 168.94 29.55 188.84 29.55"/><polyline class="cls-4" points="168.94 29.55 154.88 43.62 154.87 43.62 154.87 43.63"/><rect class="cls-1" x="16.95" y="15.75" width="109.53" height="20.84"/><rect class="cls-5" x="22.1" y="21.42" width="98.34" height="2.96"/><rect class="cls-5" x="22.1" y="27.97" width="98.34" height="2.96"/></g></g></svg>