<?xml version="1.0" encoding="iso-8859-1"?>
<!-- Generator: Adobe Illustrator 19.1.0, SVG Export Plug-In . SVG Version: 6.00 Build 0)  -->
<svg version="1.1" id="Capa_1" xmlns="http://www.w3.org/2000/svg" xmlns:xlink="http://www.w3.org/1999/xlink" x="0px" y="0px"
	 viewBox="0 0 453.49 453.49" style="enable-background:new 0 0 453.49 453.49;" xml:space="preserve">
<g>
	<path d="M453.49,324.7v27.14c0,17.13-13.94,31.07-31.07,31.07H31.07C13.94,382.91,0,368.97,0,351.84V324.7c0-4.14,3.36-7.5,7.5-7.5
		h11.22V106.4c0-19.75,16.07-35.82,35.82-35.82h344.41c19.75,0,35.82,16.07,35.82,35.82v210.8h11.22
		C450.13,317.2,453.49,320.56,453.49,324.7z M438.49,351.84V332.2H15v19.64c0,8.86,7.21,16.07,16.07,16.07h391.35
		C431.28,367.91,438.49,360.7,438.49,351.84z M419.77,317.2V106.4c0-11.48-9.34-20.82-20.82-20.82H54.54
		c-11.48,0-20.82,9.34-20.82,20.82v210.8H419.77z"/>
	<path style="fill:#3DD0F2;" d="M438.49,332.2v19.64c0,8.86-7.21,16.07-16.07,16.07H31.07c-8.86,0-16.07-7.21-16.07-16.07V332.2
		H438.49z"/>
	<path style="fill:#3DD0F2;" d="M419.77,106.4v210.8H33.72V106.4c0-11.48,9.34-20.82,20.82-20.82h344.41
		C410.43,85.58,419.77,94.92,419.77,106.4z M403.66,297.04v-191.3c0-4.15-3.36-7.5-7.5-7.5H57.34c-4.14,0-7.5,3.35-7.5,7.5v191.3
		c0,4.14,3.36,7.5,7.5,7.5h338.82C400.3,304.54,403.66,301.18,403.66,297.04z"/>
	<path d="M403.66,105.74v191.3c0,4.14-3.36,7.5-7.5,7.5H57.34c-4.14,0-7.5-3.36-7.5-7.5v-191.3c0-4.15,3.36-7.5,7.5-7.5h338.82
		C400.3,98.24,403.66,101.59,403.66,105.74z M388.66,289.54v-176.3H64.84v176.3H388.66z"/>
	<path d="M276.48,138.71c27.43,27.43,27.43,72.05,0,99.47l-44.43,44.44c-1.46,1.46-3.38,2.19-5.3,2.19s-3.84-0.73-5.31-2.19
		l-44.43-44.44c-27.42-27.42-27.42-72.04,0-99.47c13.29-13.28,30.95-20.6,49.74-20.6C245.53,118.11,263.2,125.43,276.48,138.71z
		 M265.88,227.58c21.57-21.58,21.57-56.69,0-78.26c-10.46-10.45-24.35-16.21-39.13-16.21s-28.68,5.76-39.13,16.21
		c-21.58,21.57-21.58,56.68,0,78.26l39.13,39.13L265.88,227.58z"/>
	<path style="fill:#F48C6C;" d="M265.88,149.32c21.57,21.57,21.57,56.68,0,78.26l-39.13,39.13l-39.13-39.13
		c-21.58-21.58-21.58-56.69,0-78.26c10.45-10.45,24.35-16.21,39.13-16.21S255.42,138.87,265.88,149.32z M262.54,188.23
		c0-19.74-16.06-35.8-35.79-35.8c-19.74,0-35.8,16.06-35.8,35.8s16.06,35.79,35.8,35.79C246.48,224.02,262.54,207.97,262.54,188.23z
		"/>
	<path d="M226.75,152.43c19.73,0,35.79,16.06,35.79,35.8s-16.06,35.79-35.79,35.79c-19.74,0-35.8-16.05-35.8-35.79
		S207.01,152.43,226.75,152.43z M247.54,188.23c0-11.47-9.33-20.8-20.79-20.8c-11.47,0-20.8,9.33-20.8,20.8s9.33,20.79,20.8,20.79
		C238.21,209.02,247.54,199.7,247.54,188.23z"/>
</g>
<g>
</g>
<g>
</g>
<g>
</g>
<g>
</g>
<g>
</g>
<g>
</g>
<g>
</g>
<g>
</g>
<g>
</g>
<g>
</g>
<g>
</g>
<g>
</g>
<g>
</g>
<g>
</g>
<g>
</g>
</svg>
