<svg xmlns="http://www.w3.org/2000/svg" viewBox="0 0 287.9 279.73"><defs><style>.cls-1{fill:#43c3ce;}.cls-1,.cls-2{stroke:#000;stroke-miterlimit:10;stroke-width:4px;}.cls-2{fill:#f4a261;}</style></defs><g id="Calque_2" data-name="Calque 2"><g id="Capa_1" data-name="Capa 1"><rect class="cls-1" x="235.69" y="209.95" width="17.28" height="75.6" rx="8.64" transform="translate(-103.32 232.98) rotate(-42.96)"/><path class="cls-1" d="M89.84,53.33V176.52H198.06V53.33Zm32.48,100.78a5.93,5.93,0,0,1-5.93,5.93h-.56a5.92,5.92,0,0,1-5.93-5.93V83.82a5.92,5.92,0,0,1,5.93-5.92h.56a5.93,5.93,0,0,1,5.93,5.92Zm27.74,0a5.93,5.93,0,0,1-5.93,5.93h-.56a5.92,5.92,0,0,1-5.93-5.93V83.82a5.92,5.92,0,0,1,5.93-5.92h.56a5.93,5.93,0,0,1,5.93,5.92Zm27.94,0a5.92,5.92,0,0,1-5.93,5.93h-.56a5.92,5.92,0,0,1-5.93-5.93V83.82a5.92,5.92,0,0,1,5.93-5.92h.56A5.92,5.92,0,0,1,178,83.82Z"/><path d="M77.87,115.52l-35.3-37.9a.27.27,0,0,0-.45,0l-35.3,37.9-2.93-2.73L39.2,74.9a4.29,4.29,0,0,1,6.29,0L80.8,112.79Z"/><rect x="40.1" y="46.2" width="3.99" height="84.09"/><path d="M210,115.52l35.31-37.9a.27.27,0,0,1,.45,0l35.3,37.9,2.92-2.73L248.7,74.9a4.31,4.31,0,0,0-6.3,0l-35.3,37.89Z"/><rect x="243.8" y="46.2" width="3.99" height="84.09"/><path class="cls-2" d="M257,37.94a10.52,10.52,0,0,0-18.57-5.47A4.22,4.22,0,0,1,234.91,34l-90.67-.89h-.58L53,34a4.22,4.22,0,0,1-3.47-1.55,10.52,10.52,0,1,0,0,13.37A4.11,4.11,0,0,1,53,44.32l90.68,1h.58l90.67-1a4.11,4.11,0,0,1,3.44,1.52,10.53,10.53,0,0,0,18.6-7.9Z"/><circle class="cls-2" cx="245.65" cy="76.82" r="6.86"/><path class="cls-2" d="M285.83,109.16c-.62,19.31-18.41,34.79-40.28,34.79s-39.66-15.48-40.28-34.79Z"/><circle class="cls-2" cx="42.35" cy="76.82" r="6.86"/><path class="cls-2" d="M2.07,109.16C2.68,128.47,20.48,144,42.35,144S82,128.47,82.63,109.16Z"/><rect class="cls-1" x="72.63" y="2" width="142.64" height="21.27"/><rect class="cls-1" x="78.88" y="183.94" width="130.14" height="13.77" transform="translate(287.9 381.66) rotate(180)"/><rect class="cls-1" x="72.63" y="206.6" width="142.64" height="21.27" transform="translate(287.9 434.47) rotate(180)"/><path class="cls-2" d="M196,142.94a48.29,48.29,0,1,0,48.29,48.29A48.29,48.29,0,0,0,196,142.94Zm0,84.16a35.87,35.87,0,1,1,35.88-35.87A35.87,35.87,0,0,1,196,227.1Z"/></g></g></svg>