<?xml version="1.0" encoding="iso-8859-1"?>
<!-- Generator: Adobe Illustrator 19.1.0, SVG Export Plug-In . SVG Version: 6.00 Build 0)  -->
<svg version="1.1" id="Capa_1" xmlns="http://www.w3.org/2000/svg" xmlns:xlink="http://www.w3.org/1999/xlink" x="0px" y="0px"
	 viewBox="0 0 459 459" style="enable-background:new 0 0 459 459;" xml:space="preserve">
<g>
	<path d="M458.27,155.735v81.95c0,12.19-9.92,22.11-22.11,22.11h-69.58v25.35c11.35,2.78,20.3,11.73,23.08,23.09h61.84
		c4.14,0,7.5,3.35,7.5,7.5c0,4.14-3.36,7.5-7.5,7.5h-61.84c-3.37,13.75-15.8,24-30.59,24c-14.78,0-27.21-10.25-30.59-24H130.51
		c-3.37,13.75-15.8,24-30.59,24c-14.78,0-27.22-10.25-30.59-24H7.5c-4.15,0-7.5-3.36-7.5-7.5c0-4.15,3.35-7.5,7.5-7.5h61.83
		c2.78-11.36,11.73-20.31,23.09-23.09v-25.35H22.84c-12.2,0-22.12-9.92-22.12-22.11v-103.81c0-12.19,9.92-22.11,22.12-22.11h52.9
		c7.96,0,15.34,4.3,19.25,11.23l3.97,7.01c1.25,2.23,3.63,3.61,6.19,3.61H177c12.2,0,22.12,9.92,22.12,22.12v81.95
		c0,12.19-9.92,22.11-22.12,22.11h-69.58v25.34c11.35,2.79,20.31,11.74,23.09,23.1h197.97c2.79-11.36,11.74-20.31,23.1-23.1v-25.34
		h-69.59c-12.2,0-22.11-9.92-22.11-22.11v-103.81c0-12.19,9.91-22.11,22.11-22.11h52.9c7.96,0,15.34,4.3,19.25,11.23l3.97,7.01
		c1.26,2.23,3.63,3.61,6.19,3.61h71.86C448.35,133.615,458.27,143.535,458.27,155.735z M443.27,237.685v-81.95
		c0-3.93-3.19-7.12-7.11-7.12H364.3c-7.96,0-15.34-4.3-19.25-11.23l-3.96-7.01c-1.26-2.23-3.64-3.61-6.2-3.61h-52.9
		c-3.92,0-7.11,3.19-7.11,7.11v103.81c0,3.92,3.19,7.11,7.11,7.11h154.17C440.08,244.795,443.27,241.605,443.27,237.685z
		 M375.57,315.735c0-9.1-7.4-16.5-16.5-16.5s-16.5,7.4-16.5,16.5c0,9.09,7.4,16.5,16.5,16.5S375.57,324.825,375.57,315.735z
		 M184.12,237.685v-81.95c0-3.93-3.19-7.12-7.12-7.12h-71.85c-7.96,0-15.34-4.3-19.25-11.23l-3.97-7.01
		c-1.26-2.23-3.63-3.61-6.19-3.61h-52.9c-3.92,0-7.12,3.19-7.12,7.11v103.81c0,3.92,3.2,7.11,7.12,7.11H177
		C180.93,244.795,184.12,241.605,184.12,237.685z M116.42,315.735c0-9.1-7.4-16.5-16.5-16.5s-16.5,7.4-16.5,16.5
		c0,9.09,7.4,16.5,16.5,16.5S116.42,324.825,116.42,315.735z"/>
	<path style="fill:#3DD0F2;" d="M443.27,155.735v81.95c0,3.92-3.19,7.11-7.11,7.11H281.99c-3.92,0-7.11-3.19-7.11-7.11v-103.81
		c0-3.92,3.19-7.11,7.11-7.11h52.9c2.56,0,4.94,1.38,6.2,3.61l3.96,7.01c3.91,6.93,11.29,11.23,19.25,11.23h71.86
		C440.08,148.615,443.27,151.805,443.27,155.735z"/>
	<path style="fill:#F48C6C;" d="M359.07,299.235c9.1,0,16.5,7.4,16.5,16.5c0,9.09-7.4,16.5-16.5,16.5s-16.5-7.41-16.5-16.5
		C342.57,306.635,349.97,299.235,359.07,299.235z"/>
	<path style="fill:#3DD0F2;" d="M184.12,155.735v81.95c0,3.92-3.19,7.11-7.12,7.11H22.84c-3.92,0-7.12-3.19-7.12-7.11v-103.81
		c0-3.92,3.2-7.11,7.12-7.11h52.9c2.56,0,4.93,1.38,6.19,3.61l3.97,7.01c3.91,6.93,11.29,11.23,19.25,11.23H177
		C180.93,148.615,184.12,151.805,184.12,155.735z"/>
	<path style="fill:#F48C6C;" d="M99.92,299.235c9.1,0,16.5,7.4,16.5,16.5c0,9.09-7.4,16.5-16.5,16.5s-16.5-7.41-16.5-16.5
		C83.42,306.635,90.82,299.235,99.92,299.235z"/>
</g>
<g>
</g>
<g>
</g>
<g>
</g>
<g>
</g>
<g>
</g>
<g>
</g>
<g>
</g>
<g>
</g>
<g>
</g>
<g>
</g>
<g>
</g>
<g>
</g>
<g>
</g>
<g>
</g>
<g>
</g>
</svg>
