<?xml version="1.0" encoding="utf-8"?>
<!-- Generator: Adobe Illustrator 24.1.2, SVG Export Plug-In . SVG Version: 6.00 Build 0)  -->
<svg version="1.1" id="Calque_1" xmlns="http://www.w3.org/2000/svg" xmlns:xlink="http://www.w3.org/1999/xlink" x="0px" y="0px"
	 viewBox="0 0 127.5 215" style="enable-background:new 0 0 127.5 215;" xml:space="preserve">
<style type="text/css">
	.st0{fill:#F4A261;}
</style>
<g id="Calque_2_1_">
	<g id="Calque_1-2">
		<path class="st0" d="M20,0c5.8,0,11.3,2.5,15.1,6.8c5.2,5.4,54.2,54.3,86.6,86.5c7.8,7.8,7.8,20.5,0,28.3c0,0,0,0,0,0l-87.5,87.5
			c-8.1,7.6-20.7,7.1-28.3-0.9c-7.2-7.7-7.2-19.7,0-27.4l73.3-73.3L49.6,78c-11-10.9-21.9-21.9-30.1-30.1c-4.1-4.1-7.6-7.6-10-10
			L6.6,35C-4.7,23.4,1.6,11.7,3,9.5C6.6,3.6,13.1,0,20,0z"/>
	</g>
</g>
</svg>
