<?xml version="1.0" encoding="utf-8"?>
<!-- Generator: Adobe Illustrator 24.1.2, SVG Export Plug-In . SVG Version: 6.00 Build 0)  -->
<svg version="1.1" id="Calque_1" xmlns="http://www.w3.org/2000/svg" xmlns:xlink="http://www.w3.org/1999/xlink" x="0px" y="0px"
	 viewBox="0 0 127.5 215" style="enable-background:new 0 0 127.5 215;" xml:space="preserve">
<style type="text/css">
	.st0{fill:#F4A261;}
</style>
<g id="Calque_2_1_">
	<g id="Calque_1-2">
		<path class="st0" d="M107.5,215c-5.8,0-11.3-2.5-15.1-6.8c-5.2-5.4-54.2-54.3-86.6-86.5c-7.8-7.8-7.8-20.5,0-28.3c0,0,0,0,0,0
			L93.4,5.9c7.9-7.7,20.6-7.5,28.3,0.5c7.5,7.8,7.5,20,0,27.8l-73.4,73.3L77.9,137c11,10.9,21.9,21.9,30.1,30.1
			c4.1,4.1,7.6,7.6,10,10c1.2,1.3,2.2,2.2,2.9,2.9c11.3,11.6,5,23.3,3.7,25.5C120.9,211.4,114.5,215,107.5,215z"/>
	</g>
</g>
</svg>
