<svg xmlns="http://www.w3.org/2000/svg" viewBox="0 0 355.92 285.12"><defs><style>.cls-1{fill:#dbdbdb;}.cls-2{fill:#ededed;}.cls-3{fill:none;stroke:#dbdbdb;stroke-miterlimit:10;stroke-width:6px;}</style></defs><g id="Calque_2" data-name="Calque 2"><g id="Capa_1" data-name="Capa 1"><path class="cls-1" d="M355.92,285.12a404.22,404.22,0,0,0-178,0V25.23a404.22,404.22,0,0,1,178,0Z"/><path class="cls-1" d="M0,285.12a404.22,404.22,0,0,1,178,0V25.23a404.22,404.22,0,0,0-178,0Z"/><path class="cls-2" d="M345.8,264.7a367.41,367.41,0,0,0-167.84,0V9.71a367.41,367.41,0,0,1,167.84,0Z"/><path class="cls-2" d="M10.12,264.7a367.41,367.41,0,0,1,167.84,0V9.71a367.41,367.41,0,0,0-167.84,0Z"/><path class="cls-3" d="M33,44.91s55.85-21.35,127.81,0"/><path class="cls-3" d="M33,67.07s55.85-21.36,127.81,0"/><path class="cls-3" d="M33,89.23s55.85-21.36,127.81,0"/><path class="cls-3" d="M33,111.39s55.85-21.36,127.81,0"/><path class="cls-3" d="M33,133.55s55.85-21.36,127.81,0"/><path class="cls-3" d="M33,155.71s55.85-21.36,127.81,0"/><path class="cls-3" d="M33,177.86s55.85-21.35,127.81,0"/><path class="cls-3" d="M33,200s55.85-21.35,127.81,0"/><path class="cls-3" d="M33,222.18s55.85-21.35,127.81,0"/><path class="cls-3" d="M198,44.91s55.85-21.35,127.81,0"/><path class="cls-3" d="M198,67.07s55.85-21.36,127.81,0"/><path class="cls-3" d="M198,89.23s55.85-21.36,127.81,0"/><path class="cls-3" d="M198,111.39s55.85-21.36,127.81,0"/><path class="cls-3" d="M198,133.55s55.85-21.36,127.81,0"/><path class="cls-3" d="M198,155.71s55.85-21.36,127.81,0"/><path class="cls-3" d="M198,177.86s55.85-21.35,127.81,0"/><path class="cls-3" d="M198,200s55.85-21.35,127.81,0"/><path class="cls-3" d="M198,222.18s55.85-21.35,127.81,0"/></g></g></svg>