<svg xmlns="http://www.w3.org/2000/svg" viewBox="0 0 336.28 326.65"><defs><style>.cls-1{fill:#ededed;stroke:#dbdbdb;stroke-miterlimit:10;stroke-width:5px;}</style></defs><g id="Calque_2" data-name="Calque 2"><g id="Capa_1" data-name="Capa 1"><path class="cls-1" d="M287.83,199V183.88a16.28,16.28,0,1,0-32.55,0V199H209.33v45.54h15.3a16.28,16.28,0,0,1,0,32.56h-15.3v47H333.78V199Z"/><path class="cls-1" d="M55.92,170.1a15.61,15.61,0,1,0,31.21,0V142.28h54.71v-24.2H134.4a37,37,0,0,1,0-73.9h7.44V2.5H2.5V142.28H55.92Z"/><path class="cls-1" d="M234.43,112.93a21.17,21.17,0,0,1,21.16,21.17v20.67H303V2.5H164.78V67.12H134.4a14,14,0,0,0,0,28h30.38v59.64h48.48V134.1a21.17,21.17,0,0,1,21.17-21.17Z"/><path class="cls-1" d="M166.17,211.33H141.84V165.22H110.08v4.88a38.56,38.56,0,1,1-77.11,0v-4.88H2.5V303H141.84V253.66h24.33a21.17,21.17,0,1,0,0-42.33Z"/></g></g></svg>