<svg xmlns="http://www.w3.org/2000/svg" viewBox="0 0 740.7 473.9"><defs><style>.cls-1{fill:#e6e6e6;}.cls-2{fill:#f2f2f2;}.cls-3{fill:#ccc;}.cls-4{fill:#a0616a;}.cls-5{fill:#2f2e41;}.cls-6{fill:#3f3d56;}.cls-7{fill:#fff;}.cls-8{fill:#ffb8b8;}.cls-9{fill:#06ccd6;}</style></defs><title>presentation-blue</title><g id="Calque_2" data-name="Calque 2"><g id="b959f442-9ede-455f-a827-2b42a560702a"><path class="cls-1" d="M111.5,129.4a119.81,119.81,0,0,1,10.1-38.5c1.5-3.4,3.2-6.7,5-10a.69.69,0,0,0-.3-1,.71.71,0,0,0-1,.3,125.61,125.61,0,0,0-13.8,38c-.7,3.7-1.2,7.5-1.6,11.2C109.9,130.4,111.4,130.4,111.5,129.4Z"/><circle class="cls-1" cx="130.2" cy="73.9" r="9.4"/><path class="cls-1" d="M112.5,129.7a77.76,77.76,0,0,1,6.6-25c1-2.2,2.1-4.4,3.3-6.5a.66.66,0,0,0-.2-.7.48.48,0,0,0-.6.2,80.71,80.71,0,0,0-8.9,24.6c-.4,2.4-.8,4.8-1,7.3C111.5,130.3,112.4,130.3,112.5,129.7Z"/><circle class="cls-1" cx="124.6" cy="93.7" r="6.1"/><path class="cls-1" d="M111.3,129.1a79.14,79.14,0,0,1-10.2-23.7c-.6-2.3-1-4.7-1.4-7.1,0-.3-.3-.4-.6-.4s-.4.3-.4.5a80.84,80.84,0,0,0,8.1,24.9c1.1,2.2,2.4,4.3,3.7,6.4C110.8,130.2,111.6,129.6,111.3,129.1Z"/><circle class="cls-1" cx="98.7" cy="93.2" r="6.1"/><path class="cls-2" d="M92.5,134.5v-12A4.48,4.48,0,0,1,97,118h28a4.48,4.48,0,0,1,4.5,4.5v12A4.48,4.48,0,0,1,125,139H97A4.48,4.48,0,0,1,92.5,134.5Z"/><path class="cls-2" d="M124,58H112a4.48,4.48,0,0,1-4.5-4.5V4.5A4.48,4.48,0,0,1,112,0h12a4.48,4.48,0,0,1,4.5,4.5v49A4.48,4.48,0,0,1,124,58Z"/><rect class="cls-3" x="108" y="9.5" width="20" height="4"/><rect class="cls-3" x="108" y="40.5" width="20" height="4"/><path class="cls-2" d="M154,58H142a4.48,4.48,0,0,1-4.5-4.5V4.5A4.48,4.48,0,0,1,142,0h12a4.48,4.48,0,0,1,4.5,4.5v49A4.48,4.48,0,0,1,154,58Z"/><rect class="cls-3" x="138" y="9.5" width="20" height="4"/><rect class="cls-3" x="138" y="40.5" width="20" height="4"/><path class="cls-2" d="M184,58H172a4.48,4.48,0,0,1-4.5-4.5V4.5A4.48,4.48,0,0,1,172,0h12a4.48,4.48,0,0,1,4.5,4.5v49A4.48,4.48,0,0,1,184,58Z"/><rect class="cls-3" x="168" y="9.5" width="20" height="4"/><rect class="cls-3" x="168" y="40.5" width="20" height="4"/><path class="cls-2" d="M200,139H188a4.48,4.48,0,0,1-4.5-4.5v-49A4.48,4.48,0,0,1,188,81h12a4.48,4.48,0,0,1,4.5,4.5v49A4.48,4.48,0,0,1,200,139Z"/><rect class="cls-3" x="184" y="90.5" width="20" height="4"/><rect class="cls-3" x="184" y="121.5" width="20" height="4"/><path class="cls-2" d="M230,139H218a4.48,4.48,0,0,1-4.5-4.5v-49A4.48,4.48,0,0,1,218,81h12a4.48,4.48,0,0,1,4.5,4.5v49A4.48,4.48,0,0,1,230,139Z"/><rect class="cls-3" x="214" y="90.5" width="20" height="4"/><rect class="cls-3" x="214" y="121.5" width="20" height="4"/><path class="cls-2" d="M260,139H248a4.48,4.48,0,0,1-4.5-4.5v-49A4.48,4.48,0,0,1,248,81h12a4.48,4.48,0,0,1,4.5,4.5v49A4.48,4.48,0,0,1,260,139Z"/><rect class="cls-3" x="244" y="90.5" width="20" height="4"/><rect class="cls-3" x="244" y="121.5" width="20" height="4"/><path class="cls-2" d="M121,220H109a4.48,4.48,0,0,1-4.5-4.5v-49A4.48,4.48,0,0,1,109,162h12a4.48,4.48,0,0,1,4.5,4.5v49A4.48,4.48,0,0,1,121,220Z"/><rect class="cls-3" x="105" y="171.5" width="20" height="4"/><rect class="cls-3" x="105" y="202.5" width="20" height="4"/><path class="cls-2" d="M151,220H139a4.48,4.48,0,0,1-4.5-4.5v-49A4.48,4.48,0,0,1,139,162h12a4.48,4.48,0,0,1,4.5,4.5v49A4.48,4.48,0,0,1,151,220Z"/><rect class="cls-3" x="135" y="171.5" width="20" height="4"/><rect class="cls-3" x="135" y="202.5" width="20" height="4"/><path class="cls-2" d="M181,220H169a4.48,4.48,0,0,1-4.5-4.5v-49A4.48,4.48,0,0,1,169,162h12a4.48,4.48,0,0,1,4.5,4.5v49A4.48,4.48,0,0,1,181,220Z"/><rect class="cls-3" x="165" y="171.5" width="20" height="4"/><rect class="cls-3" x="165" y="202.5" width="20" height="4"/><path class="cls-2" d="M214,58H202a4.48,4.48,0,0,1-4.5-4.5V4.5A4.48,4.48,0,0,1,202,0h12a4.48,4.48,0,0,1,4.5,4.5v49A4.48,4.48,0,0,1,214,58Z"/><rect class="cls-3" x="198" y="9.5" width="20" height="4"/><rect class="cls-3" x="198" y="40.5" width="20" height="4"/><path class="cls-2" d="M244,58H232a4.48,4.48,0,0,1-4.5-4.5V4.5A4.48,4.48,0,0,1,232,0h12a4.48,4.48,0,0,1,4.5,4.5v49A4.48,4.48,0,0,1,244,58Z"/><rect class="cls-3" x="228" y="9.5" width="20" height="4"/><rect class="cls-3" x="228" y="40.5" width="20" height="4"/><path class="cls-2" d="M274,58H262a4.48,4.48,0,0,1-4.5-4.5V4.5A4.48,4.48,0,0,1,262,0h12a4.48,4.48,0,0,1,4.5,4.5v49A4.48,4.48,0,0,1,274,58Z"/><rect class="cls-3" x="258" y="9.5" width="20" height="4"/><rect class="cls-3" x="258" y="40.5" width="20" height="4"/><path class="cls-2" d="M304,58H292a4.48,4.48,0,0,1-4.5-4.5V4.5A4.48,4.48,0,0,1,292,0h12a4.48,4.48,0,0,1,4.5,4.5v49A4.48,4.48,0,0,1,304,58Z"/><rect class="cls-3" x="288" y="9.5" width="20" height="4"/><rect class="cls-3" x="288" y="40.5" width="20" height="4"/><path class="cls-3" d="M348.9,59.5H63.9a1,1,0,0,1,0-2h285a1,1,0,0,1,0,2Z"/><path class="cls-3" d="M348.9,140.5H63.9a1,1,0,0,1,0-2h285a1,1,0,0,1,0,2Z"/><path class="cls-3" d="M348.9,221.5H63.9a1,1,0,1,1,0-2h285a1,1,0,0,1,0,2Z"/><path class="cls-3" d="M332.1,378.5c0-7.7-29.1-14-65-14s-65,6.3-65,14c0,5,12,9.3,30,11.8V467a6.5,6.5,0,0,0,13,0V391.7c6.9.5,14.3.8,22,.8s15.1-.3,22-.8V467a6.5,6.5,0,0,0,13,0V390.3C320.1,387.8,332.1,383.4,332.1,378.5Z"/><polygon class="cls-4" points="319.6 460.9 331.8 460.9 337.7 413.6 319.6 413.6 319.6 460.9"/><path class="cls-5" d="M355.5,472.3H317V457.4h23.6a14.94,14.94,0,0,1,14.9,14.9Z"/><polygon class="cls-4" points="338.7 454.1 350.4 450.4 341.8 403.5 324.5 408.9 338.7 454.1"/><path class="cls-5" d="M376.4,454.2l-36.8,11.5h0l-4.5-14.2h0l22.6-7.1a15,15,0,0,1,18.7,9.8Z"/><path class="cls-5" d="M330.5,432.3l-22.4-58.9c-5,1.2-47.2,10.5-61.4-4.5-4.8-5.2-5.8-12.6-2.8-22.2l8.2-10.4h.3c3.1.2,76.4,4.3,81.5,26.4,4.2,18.6,12,53.4,14.2,63.6a4.49,4.49,0,0,1-2.8,5.2l-9,3.4a4.15,4.15,0,0,1-1.6.3A4.56,4.56,0,0,1,330.5,432.3Z"/><path class="cls-5" d="M317.5,439.3l-22.4-58.9c-5,1.2-47.2,10.5-61.4-4.5-4.8-5.2-5.8-12.6-2.8-22.2l8.2-10.4h.3c3.1.2,76.4,4.3,81.5,26.4,4.2,18.6,12,53.4,14.2,63.6a4.49,4.49,0,0,1-2.8,5.2l-9,3.4a4.15,4.15,0,0,1-1.6.3A4.56,4.56,0,0,1,317.5,439.3Z"/><path class="cls-4" d="M347.8,298.2c-.3.4-.6.9-.9,1.4l-49.3,5.2-7.1-9.7-16.1,8.8,13.9,23.6,60.5-15.4a10.47,10.47,0,1,0-.2-14.8,8.18,8.18,0,0,0-.8.9Z"/><path class="cls-4" d="M300.8,296.2c-.3.4-.6.9-.9,1.4l-49.3,5.2-7.1-9.7-16.1,8.8,13.9,23.6,60.5-15.4a10.47,10.47,0,1,0-.2-14.8,8.18,8.18,0,0,0-.8.9Z"/><circle class="cls-4" cx="250.9" cy="227.9" r="24.6"/><path class="cls-5" d="M233.3,244.7a2.12,2.12,0,0,1,1.3-2.7.9.9,0,0,1,.5-.1,5.31,5.31,0,0,1,3.5,1.7,13,13,0,0,0,3.1,2.6,2.71,2.71,0,0,0,3.5-.6c.6-1.1.2-2.5-.2-3.8a36.51,36.51,0,0,1-1.6-9.8c-.1-3.7.4-7.6,2.5-10.4,2.6-3.7,7.4-5.1,11.8-5s8.9,1.5,13.3,2.4c1.5.3,3.3.5,4.4-.7s.7-3.3.2-5c-1.2-4.4-2.5-9-5.3-12.6a19,19,0,0,0-12.1-6.8,29.55,29.55,0,0,0-13.5,1.5A36.15,36.15,0,0,0,227,207.7a29.72,29.72,0,0,0-5.6,21.6,26.64,26.64,0,0,0,9.9,16.9Z"/><path class="cls-6" d="M139.6,303.9a119.81,119.81,0,0,1,10.1-38.5c1.5-3.4,3.2-6.7,5-10a.69.69,0,0,0-.3-1,.71.71,0,0,0-1,.3,125.61,125.61,0,0,0-13.8,38c-.7,3.7-1.2,7.5-1.6,11.2C138,304.8,139.5,304.8,139.6,303.9Z"/><path class="cls-6" d="M140.5,304.1a77.76,77.76,0,0,1,6.6-25c1-2.2,2.1-4.4,3.3-6.5a.66.66,0,0,0-.2-.7.48.48,0,0,0-.6.2,80.71,80.71,0,0,0-8.9,24.6c-.4,2.4-.8,4.8-1,7.3C139.5,304.7,140.5,304.7,140.5,304.1Z"/><path class="cls-6" d="M139.3,303.5a79.14,79.14,0,0,1-10.2-23.7c-.6-2.3-1-4.7-1.4-7.1,0-.3-.3-.4-.6-.4s-.4.3-.4.5a80.84,80.84,0,0,0,8.1,24.9c1.1,2.2,2.4,4.3,3.7,6.4.4.6,1.1,0,.8-.6Z"/><path class="cls-3" d="M120.6,309V297a4.48,4.48,0,0,1,4.5-4.5h28a4.48,4.48,0,0,1,4.5,4.5v12a4.48,4.48,0,0,1-4.5,4.5h-28A4.55,4.55,0,0,1,120.6,309Z"/><path class="cls-3" d="M292.6,305.5h79a3.54,3.54,0,0,1,3.5,3.5h0a3.54,3.54,0,0,1-3.5,3.5h-79a3.54,3.54,0,0,1-3.5-3.5h0A3.42,3.42,0,0,1,292.6,305.5Z"/><path class="cls-3" d="M424.6,312.5h-89a6.49,6.49,0,0,1-6.5-6.5V257a6.49,6.49,0,0,1,6.5-6.5h89a6.49,6.49,0,0,1,6.5,6.5v49A6.49,6.49,0,0,1,424.6,312.5Z"/><circle class="cls-7" cx="380.1" cy="281.5" r="6"/><path class="cls-3" d="M651.1,378.5c0-7.7-29.1-14-65-14s-65,6.3-65,14c0,5,12,9.3,30,11.8V467a6.5,6.5,0,0,0,13,0V391.7c6.9.5,14.3.8,22,.8s15.1-.3,22-.8V467a6.5,6.5,0,0,0,13,0V390.3C639.1,387.8,651.1,383.4,651.1,378.5Z"/><circle class="cls-5" cx="593.3" cy="222.3" r="28"/><polygon class="cls-8" points="523.6 461.9 511.3 461.9 505.5 414.6 523.6 414.6 523.6 461.9"/><path class="cls-5" d="M502.6,458.4h23.6v14.9H487.7a14.87,14.87,0,0,1,14.9-14.9Z"/><polygon class="cls-8" points="504.4 455.1 492.7 451.4 501.3 404.5 518.6 409.9 504.4 455.1"/><path class="cls-5" d="M485.4,445.4l22.6,7.1h0l-4.5,14.2h0l-36.8-11.5h0A15,15,0,0,1,485.4,445.4Z"/><path class="cls-5" d="M508.4,436.2a4.53,4.53,0,0,1-1.6-.3l-9-3.4a4.49,4.49,0,0,1-2.8-5.2c2.3-10.2,10-45,14.2-63.6,5-22.1,78.3-26.2,81.5-26.4h.3l8.2,10.4c3,9.6,2,17.1-2.8,22.2-14.1,15-56.3,5.7-61.4,4.5l-22.4,58.9A4.46,4.46,0,0,1,508.4,436.2Z"/><path class="cls-5" d="M521.4,443.2a4.53,4.53,0,0,1-1.6-.3l-9-3.4a4.49,4.49,0,0,1-2.8-5.2c2.3-10.2,10-45,14.2-63.6,5-22.1,78.3-26.2,81.5-26.4h.3l8.2,10.4c3,9.6,2,17.1-2.8,22.2-14.1,15-56.3,5.7-61.4,4.5l-22.4,58.9A4.46,4.46,0,0,1,521.4,443.2Z"/><path class="cls-8" d="M495.3,299.2c.3.4.6.9.9,1.4l49.3,5.2,7.1-9.7,16.1,8.8-13.9,23.6L494.3,313a10.47,10.47,0,1,1,.2-14.8,3.92,3.92,0,0,1,.8,1Z"/><circle class="cls-8" cx="592.2" cy="228.9" r="24.6"/><path class="cls-5" d="M567.2,216.8a88.15,88.15,0,0,0,38.3,12.6l-4-4.8a28.39,28.39,0,0,0,9.2,1.8,10.2,10.2,0,0,0,8.2-3.8,9.35,9.35,0,0,0,.6-8.6,16.64,16.64,0,0,0-5.6-7,32.89,32.89,0,0,0-30.8-5.5,19.54,19.54,0,0,0-9.2,5.9c-2.3,2.9-6.8,5.4-5.6,8.9Z"/><path class="cls-5" d="M592.6,207.2c-.2,3.1,3.3,5.4,6.4,5.1s5.7-2.3,8.2-4.1,5.2-3.7,8.3-3.8c4.1,0,7.6,3.3,9.1,7.1s1.4,8,1.2,12.1l-.8,24.1c-.2,5.4-.1,11.5,3.8,15.2,3.7,3.5,9.5,3.6,14.4,2.4s9.6-3.6,14.7-4.3a28.29,28.29,0,0,1-10.8-1.5,26.33,26.33,0,0,1-15.7-33.7c1.5-4,3.9-7.6,5.7-11.5s3-8.3,1.9-12.5c-1.4-5-6.3-8.6-11.4-9.6s-10.5.1-15.4,1.9a54.82,54.82,0,0,0-20.4,13.2"/><polygon class="cls-1" points="482.2 281.1 538.8 282.4 546.9 342.9 494.7 344 482.2 281.1"/><path class="cls-8" d="M542.3,297.2c.3.4.6.9.9,1.4l49.3,5.2,7.1-9.7,16.1,8.8-13.9,23.6L541.3,311a10.47,10.47,0,1,1,.2-14.8,3.92,3.92,0,0,1,.8,1Z"/><path class="cls-9" d="M230.6,356.8a4.36,4.36,0,0,1-1.8-4.3c2.8-18.3-.4-44.6-3.6-63.4a24.8,24.8,0,0,1,20.3-28.6,25.54,25.54,0,0,1,7.3-.2,66.78,66.78,0,0,1,9.9,2h0a24.58,24.58,0,0,1,18.6,24.5c-.5,18.2,3.2,40.8,4.8,49.7a4.83,4.83,0,0,1-.8,3.5,4.72,4.72,0,0,1-3.1,1.8c-17.8,1.8-37,10.5-46.9,15.5a4.55,4.55,0,0,1-2,.5A4.93,4.93,0,0,1,230.6,356.8Z"/><path class="cls-9" d="M278.7,309.5a4.52,4.52,0,0,1-2.5-2.4l-9.9-22.9a11.49,11.49,0,1,1,21.1-9.1l9.9,22.9a4.52,4.52,0,0,1-2.3,5.9l-12.8,5.6a5.25,5.25,0,0,1-3.5,0Z"/><path class="cls-9" d="M231.7,310.5a4.52,4.52,0,0,1-2.5-2.4l-9.9-22.9a11.49,11.49,0,1,1,21.1-9.1h0l9.9,22.9a4.52,4.52,0,0,1-2.3,5.9l-12.8,5.6a5.25,5.25,0,0,1-3.5,0Z"/><circle class="cls-9" cx="158.3" cy="248.4" r="9.4"/><circle class="cls-9" cx="152.7" cy="268.1" r="6.1"/><circle class="cls-9" cx="126.7" cy="267.69" r="6.1"/><path class="cls-9" d="M609.9,358.7a4.55,4.55,0,0,1-2-.5c-9.9-5-29.1-13.7-46.9-15.5a4.35,4.35,0,0,1-3.1-1.8,4.06,4.06,0,0,1-.8-3.5c1.6-8.9,5.3-31.5,4.8-49.7a24.58,24.58,0,0,1,18.6-24.5h0a86.8,86.8,0,0,1,9.9-2,24.78,24.78,0,0,1,27.7,21.5,22.38,22.38,0,0,1-.2,7.3c-3.2,18.8-6.4,45.1-3.6,63.4a4.21,4.21,0,0,1-1.8,4.3A3.54,3.54,0,0,1,609.9,358.7Z"/><path class="cls-9" d="M562.8,310.8a3.92,3.92,0,0,1-1.8-.4l-12.8-5.6a4.43,4.43,0,0,1-2.3-5.9l9.9-22.9a11.49,11.49,0,0,1,21.1,9.1h0L567,308a4.68,4.68,0,0,1-4.2,2.8Z"/><path class="cls-9" d="M609.8,311.8a3.92,3.92,0,0,1-1.8-.4l-12.8-5.6a4.43,4.43,0,0,1-2.3-5.9l9.9-22.9a11.49,11.49,0,0,1,21.1,9.1h0L614,309a4.68,4.68,0,0,1-4.2,2.8Z"/><path class="cls-6" d="M493.6,311.5H95.6a6.5,6.5,0,0,0,0,13h11.5V466a6.5,6.5,0,0,0,13,0V337L193,469.1a6.52,6.52,0,1,0,11.3-6.5L128,324.5H476v.1l-76.1,138a6.52,6.52,0,0,0,11.3,6.5h0l64.9-117.6V466a6.5,6.5,0,0,0,13,0V327.9l1.9-3.4h2.6a6.5,6.5,0,0,0,0-13Z"/><path class="cls-6" d="M739.5,473.9H1.2a1.2,1.2,0,1,1,0-2.4H739.5a1.16,1.16,0,0,1,1.2,1.2A1.22,1.22,0,0,1,739.5,473.9Z"/></g></g></svg>