<svg xmlns="http://www.w3.org/2000/svg" xmlns:xlink="http://www.w3.org/1999/xlink" viewBox="0 0 717.95 748.22"><defs><style>.cls-1{opacity:0.7;}.cls-2{fill:url(#Dégradé_sans_nom_4);}.cls-3,.cls-4{fill:#06ccd6;}.cls-4,.cls-5{opacity:0.1;}.cls-13,.cls-4,.cls-5{isolation:isolate;}.cls-6{fill:#eee;}.cls-7,.cls-9{fill:none;stroke-miterlimit:10;}.cls-7{stroke:#e0e0e0;stroke-width:8px;}.cls-8{fill:url(#Dégradé_sans_nom_4-2);}.cls-9{stroke:#bdbdbd;stroke-width:5px;}.cls-10{fill:#b84733;}.cls-11{fill:#f55f44;}.cls-12{fill:#39447a;}.cls-13{opacity:0.05;}.cls-14{fill:#fda57d;}.cls-15{fill:#333;}.cls-16{fill:url(#Dégradé_sans_nom_4-3);}.cls-17{fill:#e0e0e0;}.cls-18{fill:#535461;}.cls-19{fill:url(#Dégradé_sans_nom_4-4);}.cls-20{fill:#3e3f49;}</style><linearGradient id="Dégradé_sans_nom_4" x1="777.75" y1="339.19" x2="777.75" y2="400.2" gradientTransform="matrix(1, 0, 0, -1, -149.8, 674.11)" gradientUnits="userSpaceOnUse"><stop offset="0" stop-color="gray" stop-opacity="0.25"/><stop offset="0.54" stop-color="gray" stop-opacity="0.12"/><stop offset="1" stop-color="gray" stop-opacity="0.1"/></linearGradient><linearGradient id="Dégradé_sans_nom_4-2" x1="328.22" y1="-74.11" x2="328.22" y2="674.11" xlink:href="#Dégradé_sans_nom_4"/><linearGradient id="Dégradé_sans_nom_4-3" x1="539.8" y1="262.92" x2="539.8" y2="265.92" xlink:href="#Dégradé_sans_nom_4"/><linearGradient id="Dégradé_sans_nom_4-4" x1="461.66" y1="408.82" x2="461.66" y2="566.92" gradientTransform="matrix(1, 0, 0, -1, 0, 750)" xlink:href="#Dégradé_sans_nom_4"/></defs><g id="Calque_2" data-name="Calque 2"><g id="a581a3db-2a43-4a80-ac9d-86c7ddaa56ac"><g class="cls-1"><path class="cls-2" d="M648.11,284.8V273.91H593.63V324.3a10.62,10.62,0,0,0,10.62,10.62h33.24a10.62,10.62,0,0,0,10.62-10.62V313.13a14.17,14.17,0,0,0,0-28.33Zm0,22.88V290.25a8.72,8.72,0,1,1,0,17.43Z"/></g><path class="cls-3" d="M646.36,286.51a12.93,12.93,0,1,0,12.93,12.93,12.93,12.93,0,0,0-12.93-12.93Zm0,20.89a8,8,0,1,1,7.95-8,8,8,0,0,1-7.95,8Z"/><path class="cls-4" d="M646.36,286.51a12.93,12.93,0,1,0,12.93,12.93,12.93,12.93,0,0,0-12.93-12.93Zm0,20.89a8,8,0,1,1,7.95-8,8,8,0,0,1-7.95,8Z"/><path class="cls-3" d="M600.14,276.56h49.74v46a9.76,9.76,0,0,1-9.75,9.75H609.89a9.75,9.75,0,0,1-9.75-9.75v-46Z"/><path class="cls-5" d="M644.74,276.56v46a9.7,9.7,0,0,1-9.7,9.7h5a9.7,9.7,0,0,0,9.7-9.7v-46Z"/><path class="cls-6" d="M606.43,239.48a2.9,2.9,0,0,0-2.19,1.12c-.66,1.18.53,2.51,1.6,3.33,2,1.5,4.1,3,5.45,5.07s1.78,5,.3,7c-1.93,2.62-6.55,3.18-7,6.41-.29,2.07,1.5,3.84,3.32,4.88,4.48,2.57,10.25,3.25,13.5,7.27,1.34-2.76,4.34-4.36,7.34-5s6.1-.63,9.14-1.09a3.17,3.17,0,0,0,2.52-1.34c.84-1.72-1.57-3.79-.74-5.52.64-1.31,2.5-1.21,3.86-1.74,2.22-.85,3.14-3.71,2.51-6s-2.41-4.09-4.28-5.56c-5-4-11.1-6.29-17.23-8-2.85-.78-6.2-2-9.16-2.12S609.26,239,606.43,239.48Z"/><line class="cls-7" x1="257.33" y1="344.02" x2="153.33" y2="668.02"/><g class="cls-1"><path class="cls-8" d="M337.91,704.51c-12.79.74-24.19,11.46-24.19,11.46l-5.51-13.68-.45.15c2.69-11.78,57.47-254.72,2.64-275.66-42.14-16.09-86.83-36-121.84-35.26V334.13h49.09v-2.05h38.86c7.45-5.32-3.38-9-15.48-11.26a11.06,11.06,0,0,0,1.3-1.83l62.24-111.67s14.32-23.52,5.12-34.77-22.5,28.63-22.5,28.63l-51.14,73.63s-51.6-53.79-84.43-80.54A57.63,57.63,0,0,0,159.39,185c-6-4.06-10.53-6.16-12.76-5.34l-.07,0a57.09,57.09,0,0,0-15.27-2.08H127.2v-8.39a65.61,65.61,0,0,0,40.52-38.4,73.67,73.67,0,0,0,5.84-64.17,4.31,4.31,0,0,0,1.73-.6c1.85-1.19,2-3.8,1.85-6A45.53,45.53,0,0,0,154,24.49c-5.18-2.84-11.12-4.79-14.94-9.29-3.28-3.87-4.66-9.28-8.63-12.44C125.73-1,118.91-.34,113.12,1.33A63.15,63.15,0,0,0,95,9.86C88.76,14.16,83.11,19.67,75.9,22c-5.13,1.69-10.68,1.66-15.84,3.24A26.62,26.62,0,0,0,42.94,42a34.66,34.66,0,0,0-1.46,13,73.1,73.1,0,0,0-7.35,16.72L33,72.36l1.12-.5A73.61,73.61,0,0,0,54.84,147a65.58,65.58,0,0,0,31.45,22.32v10.15a77.29,77.29,0,0,0-25.1,10.28h0s-.65.4-1.77,1.15l-.34.23C51.51,196.2,26.15,215,27,235.25a23.05,23.05,0,0,0,0,2.35,77.47,77.47,0,0,0-2.09,17.88V402.65a72.28,72.28,0,0,0,15.51,44.83c-21.34,4.78-34.94,12-34.94,20.11a7,7,0,0,1,0,2c0,14.41,43,26.08,96.13,26.08,6.42,0,12.69-.17,18.76-.49l60,48.56L84.24,698.2s-31.7,24.55-7.15,32.73,74.65,14.32,74.65,14.32,8.18-14.32-3.07-20.46-26.59-3.06-26.59-3.06l2-12.28s166.7-143.17,131.92-192.26c-6.65-9.39-13.3-19.08-20-28.62L262.28,491l6,224.76.75-.25c-1.5,4.42-12.1,37.74,11.4,32.1,25.16-6,70.93-27.33,70.93-27.33S350.7,703.76,337.91,704.51ZM237.65,317.77l-49.09-14.26v-42l53.35,56.64C239.29,317.89,237.65,317.77,237.65,317.77Z"/></g><circle cx="106.33" cy="99.02" r="72"/><path class="cls-3" d="M188.33,264l54.95,58.32a10.73,10.73,0,0,0,15.17.46,11,11,0,0,0,2-2.59L321.33,211l-17-6-50,72s-93.86-97.84-107-93S188.33,264,188.33,264Z"/><line class="cls-9" x1="83.33" y1="466.02" x2="2.33" y2="676.02"/><line class="cls-9" x1="123.33" y1="466.02" x2="204.33" y2="676.02"/><ellipse class="cls-10" cx="103.33" cy="467.52" rx="94" ry="25.5"/><ellipse class="cls-11" cx="103.33" cy="465.52" rx="94" ry="25.5"/><line class="cls-9" x1="63.78" y1="512.15" x2="152.47" y2="539.48"/><line class="cls-9" x1="142.89" y1="512.15" x2="54.2" y2="539.48"/><path class="cls-3" d="M108,182h27.91a56,56,0,0,1,56,56V386h-160V258.11A76.08,76.08,0,0,1,108,182Z"/><path class="cls-12" d="M31.86,386h160v87h-89a71,71,0,0,1-71-71h0V386Z"/><path class="cls-13" d="M30.49,242.06l97.84,93h108V321l-93-27L63.78,195.78S27.65,218.09,30.49,242.06Z"/><path class="cls-3" d="M30.49,240.06l97.84,93h108V319l-93-27L63.78,193.78S27.65,216.09,30.49,240.06Z"/><path class="cls-14" d="M236.33,319s52,4,38,14h-38Z"/><path class="cls-14" d="M304.33,205s13-39,22-28-5,34-5,34Z"/><polygon class="cls-13" points="28.33 386.02 28.33 390.68 188.33 391.02 188.33 386.02 28.33 386.02"/><path class="cls-12" d="M156.32,478.56l107.62,9.81,5.84,219.77,38.53-12.54s57.63-249,2.68-270S196.64,377,161.18,399.51,156.32,478.56,156.32,478.56Z"/><path class="cls-5" d="M159.33,411s59,30,67,64"/><path class="cls-12" d="M99.86,472l84,68-94,151,39,11s163-140,129-188-68-104-110-105S99.86,472,99.86,472Z"/><polygon class="cls-13" points="228.33 251.02 249.33 287.02 254.33 277.02 228.33 251.02"/><path class="cls-15" d="M86.33,691s-31,24-7,32,73,14,73,14,8-14-3-20-26-3-26-3l2-12Z"/><path class="cls-15" d="M267.15,707.43s-13.61,37.76,11,31.86,69.36-26.72,69.36-26.72-.62-16.12-13.13-15.39-23.65,11.2-23.65,11.2L305.33,695Z"/><rect class="cls-14" x="88.33" y="147.02" width="40" height="60" rx="20"/><path class="cls-13" d="M108.33,149a20,20,0,0,0-20,20v6.79a64.05,64.05,0,0,0,40,0V169A20,20,0,0,0,108.33,149Z"/><circle class="cls-14" cx="108.33" cy="113.02" r="64"/><path class="cls-13" d="M44.33,110.11s16,4.13,25-14.06,16-28.1,53-17.36,44.45,12.06,46.22,1.9c1.22-7-11.94-23.81-20.39-33.8C144,41.92,137.3,39,130.11,39H88.33l-25,11.57-19,16.53-4,22.32Z"/><path d="M44.33,108.11s16,4.13,25-14.06,16-28.1,53-17.36,44.45,12.06,46.22,1.9c1.22-7-11.94-23.81-20.39-33.8C144,39.92,137.3,37,130.11,37H88.33l-25,11.57-19,16.53-4,22.32Z"/><ellipse class="cls-14" cx="50.83" cy="108.02" rx="6.5" ry="13"/><path d="M46.19,74.57C44.7,66.19,43.25,57.4,46,49.34A26,26,0,0,1,62.68,33c5.05-1.55,10.48-1.52,15.49-3.17,7-2.32,12.58-7.71,18.71-11.91A61.56,61.56,0,0,1,114.57,9.6C120.23,8,126.9,7.33,131.51,11c3.89,3.08,5.23,8.38,8.44,12.16,3.74,4.4,9.54,6.31,14.61,9.08a44.53,44.53,0,0,1,22.61,34.83c.17,2.15,0,4.7-1.82,5.86a6.38,6.38,0,0,1-3.64.67c-25.58-.37-51.19-.73-76.66-3.08-7.92-.73-15.86-1.65-23.8-1.35a77.89,77.89,0,0,0-35,9.89"/><path class="cls-16" d="M390,411.18a1.5,1.5,0,1,0-1.45-1.45A1.5,1.5,0,0,0,390,411.18Z"/><line class="cls-7" x1="610.09" y1="344.02" x2="714.09" y2="714.11"/><rect class="cls-17" x="152.91" y="333.18" width="561.61" height="21.88"/><path class="cls-18" d="M297.83,328h79a6.5,6.5,0,0,1,6.5,6.5h0a6.5,6.5,0,0,1-6.5,6.5h-79a6.5,6.5,0,0,1-6.5-6.5h0A6.5,6.5,0,0,1,297.83,328Z"/><g class="cls-1"><rect class="cls-19" x="347.33" y="183.08" width="228.66" height="158.1" rx="28.22"/></g><rect class="cls-20" x="351.41" y="185.99" width="216.61" height="155.18" rx="26.84"/><rect class="cls-18" x="354.41" y="185.99" width="216.61" height="155.18" rx="26.84"/><circle class="cls-17" cx="472.83" cy="262.52" r="7"/></g></g></svg>