<?xml version="1.0" encoding="utf-8"?>
<!-- Generator: Adobe Illustrator 24.1.2, SVG Export Plug-In . SVG Version: 6.00 Build 0)  -->
<svg version="1.1" id="Calque_1" xmlns="http://www.w3.org/2000/svg" xmlns:xlink="http://www.w3.org/1999/xlink" x="0px" y="0px"
	 viewBox="0 0 147 116" style="enable-background:new 0 0 147 116;" xml:space="preserve">
<style type="text/css">
	.st0{fill:#F4A261;}
</style>
<g id="Calque_2_1_">
	<g id="Calque_1-2">
		<path class="st0" d="M13,0h121c7.2,0,13,5.8,13,13l0,0c0,7.2-5.8,13-13,13H13C5.8,26,0,20.2,0,13l0,0C0,5.8,5.8,0,13,0z"/>
		<path class="st0" d="M13,45h121c7.2,0,13,5.8,13,13l0,0c0,7.2-5.8,13-13,13H13C5.8,71,0,65.2,0,58l0,0C0,50.8,5.8,45,13,45z"/>
		<path class="st0" d="M13,90h121c7.2,0,13,5.8,13,13l0,0c0,7.2-5.8,13-13,13H13c-7.2,0-13-5.8-13-13l0,0C0,95.8,5.8,90,13,90z"/>
	</g>
</g>
</svg>
