<?xml version="1.0" encoding="utf-8"?>
<!-- Generator: Adobe Illustrator 23.0.0, SVG Export Plug-In . SVG Version: 6.00 Build 0)  -->
<svg version="1.1" id="Calque_1" xmlns="http://www.w3.org/2000/svg" xmlns:xlink="http://www.w3.org/1999/xlink" x="0px" y="0px"
	 viewBox="0 0 692 274" style="enable-background:new 0 0 692 274;" xml:space="preserve">
<style type="text/css">
	.st0{fill:#262626;}
	.st1{fill:#FFFFFF;stroke:#FFFFFF;stroke-miterlimit:10;}
</style>
<path class="st0" d="M236.5,0h309.1c5.8,0,10.5,4.7,10.5,10.5v203.1c0,5.8-4.7,10.5-10.5,10.5H236.5c-5.8,0-10.5-4.7-10.5-10.5V10.5
	C226,4.7,230.7,0,236.5,0z"/>
<path class="st0" d="M643.5,169h38.1c5.8,0,10.5,4.7,10.5,10.5v84.1c0,5.8-4.7,10.5-10.5,10.5h-38.1c-5.8,0-10.5-4.7-10.5-10.5
	v-84.1C633,173.7,637.7,169,643.5,169z"/>
<rect x="243" y="19" class="st1" width="296" height="163"/>
<rect x="638.5" y="182" class="st1" width="48" height="77"/>
<path class="st0" d="M468,257h-36c-15-3-12-26-12-26h-58c0,0,3,23-12,26h-36c0,0-8,0-9,17h172C476,257,468,257,468,257z"/>
<path class="st0" d="M176,258v2h-54v-2L0,259v7c0,0,1,8,14,8h270c13,0,14-8,14-8v-7L176,258z"/>
<path class="st0" d="M46.5,109h205.1c5.8,0,10.5,4.7,10.5,10.5v123.1c0,5.8-4.7,10.5-10.5,10.5H46.5c-5.8,0-10.5-4.7-10.5-10.5
	V119.5C36,113.7,40.7,109,46.5,109z"/>
<rect x="52" y="124" class="st1" width="194" height="115"/>
<path class="st0" d="M507.5,118h97.1c5.8,0,10.5,4.7,10.5,10.5v135.1c0,5.8-4.7,10.5-10.5,10.5h-97.1c-5.8,0-10.5-4.7-10.5-10.5
	V128.5C497,122.7,501.7,118,507.5,118z"/>
<rect x="507.5" y="131" class="st1" width="97" height="122"/>
<circle class="st1" cx="149" cy="116" r="2.8"/>
<circle class="st1" cx="556" cy="124" r="2.8"/>
<circle class="st1" cx="556" cy="262.5" r="3.9"/>
<circle class="st1" cx="662.9" cy="266.5" r="3.9"/>
<circle class="st1" cx="663" cy="176" r="2.8"/>
</svg>
