<?xml version="1.0" encoding="utf-8"?>
<!-- Generator: Adobe Illustrator 24.1.2, SVG Export Plug-In . SVG Version: 6.00 Build 0)  -->
<svg version="1.1" id="b959f442-9ede-455f-a827-2b42a560702a"
	 xmlns="http://www.w3.org/2000/svg" xmlns:xlink="http://www.w3.org/1999/xlink" x="0px" y="0px" viewBox="0 0 740.7 473.9"
	 style="enable-background:new 0 0 740.7 473.9;" xml:space="preserve">
<style type="text/css">
	.st0{fill:#E6E6E6;}
	.st1{fill:#F2F2F2;}
	.st2{fill:#CCCCCC;}
	.st3{fill:#A0616A;}
	.st4{fill:#2F2E41;}
	.st5{fill:#F4A261;}
	.st6{fill:#3F3D56;}
	.st7{fill:#FFFFFF;}
	.st8{fill:#FFB8B8;}
</style>
<path class="st0" d="M111.5,129.4c1.2-13.3,4.6-26.3,10.1-38.5c1.5-3.4,3.2-6.7,5-10c0.2-0.4,0.1-0.8-0.3-1c-0.3-0.2-0.8-0.1-1,0.3
	c-6.6,11.8-11.3,24.7-13.8,38c-0.7,3.7-1.2,7.5-1.6,11.2C109.9,130.4,111.4,130.4,111.5,129.4z"/>
<circle class="st0" cx="130.2" cy="73.9" r="9.4"/>
<path class="st0" d="M112.5,129.7c0.8-8.6,3-17.1,6.6-25c1-2.2,2.1-4.4,3.3-6.5c0.1-0.2,0-0.5-0.2-0.7c-0.2-0.1-0.5,0-0.6,0.2
	c-4.3,7.7-7.3,16-8.9,24.6c-0.4,2.4-0.8,4.8-1,7.3C111.5,130.3,112.4,130.3,112.5,129.7z"/>
<circle class="st0" cx="124.6" cy="93.7" r="6.1"/>
<path class="st0" d="M111.3,129.1c-4.7-7.3-8.1-15.3-10.2-23.7c-0.6-2.3-1-4.7-1.4-7.1c0-0.3-0.3-0.4-0.6-0.4
	c-0.3,0-0.4,0.3-0.4,0.5c1.3,8.7,4.1,17.1,8.1,24.9c1.1,2.2,2.4,4.3,3.7,6.4C110.8,130.2,111.6,129.6,111.3,129.1z"/>
<circle class="st0" cx="98.7" cy="93.2" r="6.1"/>
<path class="st1" d="M92.5,134.5v-12c0-2.5,2-4.5,4.5-4.5h28c2.5,0,4.5,2,4.5,4.5v12c0,2.5-2,4.5-4.5,4.5H97
	C94.5,139,92.5,137,92.5,134.5z"/>
<path class="st1" d="M124,58h-12c-2.5,0-4.5-2-4.5-4.5v-49c0-2.5,2-4.5,4.5-4.5h12c2.5,0,4.5,2,4.5,4.5v49C128.5,56,126.5,58,124,58
	z"/>
<rect x="108" y="9.5" class="st2" width="20" height="4"/>
<rect x="108" y="40.5" class="st2" width="20" height="4"/>
<path class="st1" d="M154,58h-12c-2.5,0-4.5-2-4.5-4.5v-49c0-2.5,2-4.5,4.5-4.5h12c2.5,0,4.5,2,4.5,4.5v49C158.5,56,156.5,58,154,58
	z"/>
<rect x="138" y="9.5" class="st2" width="20" height="4"/>
<rect x="138" y="40.5" class="st2" width="20" height="4"/>
<path class="st1" d="M184,58h-12c-2.5,0-4.5-2-4.5-4.5v-49c0-2.5,2-4.5,4.5-4.5h12c2.5,0,4.5,2,4.5,4.5v49C188.5,56,186.5,58,184,58
	z"/>
<rect x="168" y="9.5" class="st2" width="20" height="4"/>
<rect x="168" y="40.5" class="st2" width="20" height="4"/>
<path class="st1" d="M200,139h-12c-2.5,0-4.5-2-4.5-4.5v-49c0-2.5,2-4.5,4.5-4.5h12c2.5,0,4.5,2,4.5,4.5v49
	C204.5,137,202.5,139,200,139z"/>
<rect x="184" y="90.5" class="st2" width="20" height="4"/>
<rect x="184" y="121.5" class="st2" width="20" height="4"/>
<path class="st1" d="M230,139h-12c-2.5,0-4.5-2-4.5-4.5v-49c0-2.5,2-4.5,4.5-4.5h12c2.5,0,4.5,2,4.5,4.5v49
	C234.5,137,232.5,139,230,139z"/>
<rect x="214" y="90.5" class="st2" width="20" height="4"/>
<rect x="214" y="121.5" class="st2" width="20" height="4"/>
<path class="st1" d="M260,139h-12c-2.5,0-4.5-2-4.5-4.5v-49c0-2.5,2-4.5,4.5-4.5h12c2.5,0,4.5,2,4.5,4.5v49
	C264.5,137,262.5,139,260,139z"/>
<rect x="244" y="90.5" class="st2" width="20" height="4"/>
<rect x="244" y="121.5" class="st2" width="20" height="4"/>
<path class="st1" d="M121,220h-12c-2.5,0-4.5-2-4.5-4.5v-49c0-2.5,2-4.5,4.5-4.5h12c2.5,0,4.5,2,4.5,4.5v49
	C125.5,218,123.5,220,121,220z"/>
<rect x="105" y="171.5" class="st2" width="20" height="4"/>
<rect x="105" y="202.5" class="st2" width="20" height="4"/>
<path class="st1" d="M151,220h-12c-2.5,0-4.5-2-4.5-4.5v-49c0-2.5,2-4.5,4.5-4.5h12c2.5,0,4.5,2,4.5,4.5v49
	C155.5,218,153.5,220,151,220z"/>
<rect x="135" y="171.5" class="st2" width="20" height="4"/>
<rect x="135" y="202.5" class="st2" width="20" height="4"/>
<path class="st1" d="M181,220h-12c-2.5,0-4.5-2-4.5-4.5v-49c0-2.5,2-4.5,4.5-4.5h12c2.5,0,4.5,2,4.5,4.5v49
	C185.5,218,183.5,220,181,220z"/>
<rect x="165" y="171.5" class="st2" width="20" height="4"/>
<rect x="165" y="202.5" class="st2" width="20" height="4"/>
<path class="st1" d="M214,58h-12c-2.5,0-4.5-2-4.5-4.5v-49c0-2.5,2-4.5,4.5-4.5h12c2.5,0,4.5,2,4.5,4.5v49C218.5,56,216.5,58,214,58
	z"/>
<rect x="198" y="9.5" class="st2" width="20" height="4"/>
<rect x="198" y="40.5" class="st2" width="20" height="4"/>
<path class="st1" d="M244,58h-12c-2.5,0-4.5-2-4.5-4.5v-49c0-2.5,2-4.5,4.5-4.5h12c2.5,0,4.5,2,4.5,4.5v49C248.5,56,246.5,58,244,58
	z"/>
<rect x="228" y="9.5" class="st2" width="20" height="4"/>
<rect x="228" y="40.5" class="st2" width="20" height="4"/>
<path class="st1" d="M274,58h-12c-2.5,0-4.5-2-4.5-4.5v-49c0-2.5,2-4.5,4.5-4.5h12c2.5,0,4.5,2,4.5,4.5v49C278.5,56,276.5,58,274,58
	z"/>
<rect x="258" y="9.5" class="st2" width="20" height="4"/>
<rect x="258" y="40.5" class="st2" width="20" height="4"/>
<path class="st1" d="M304,58h-12c-2.5,0-4.5-2-4.5-4.5v-49c0-2.5,2-4.5,4.5-4.5h12c2.5,0,4.5,2,4.5,4.5v49C308.5,56,306.5,58,304,58
	z"/>
<rect x="288" y="9.5" class="st2" width="20" height="4"/>
<rect x="288" y="40.5" class="st2" width="20" height="4"/>
<path class="st2" d="M348.9,59.5h-285c-0.6,0-1-0.4-1-1s0.4-1,1-1h285c0.6,0,1,0.4,1,1S349.5,59.5,348.9,59.5z"/>
<path class="st2" d="M348.9,140.5h-285c-0.6,0-1-0.4-1-1s0.4-1,1-1h285c0.6,0,1,0.4,1,1S349.5,140.5,348.9,140.5z"/>
<path class="st2" d="M348.9,221.5h-285c-0.6,0-1-0.4-1-1s0.4-1,1-1h285c0.6,0,1,0.4,1,1S349.5,221.5,348.9,221.5z"/>
<path class="st2" d="M332.1,378.5c0-7.7-29.1-14-65-14s-65,6.3-65,14c0,5,12,9.3,30,11.8V467c0,3.6,2.9,6.5,6.5,6.5s6.5-2.9,6.5-6.5
	v-75.3c6.9,0.5,14.3,0.8,22,0.8s15.1-0.3,22-0.8V467c0,3.6,2.9,6.5,6.5,6.5s6.5-2.9,6.5-6.5v-76.7
	C320.1,387.8,332.1,383.4,332.1,378.5z"/>
<polygon class="st3" points="319.6,460.9 331.8,460.9 337.7,413.6 319.6,413.6 "/>
<path class="st4" d="M355.5,472.3l-38.5,0l0,0l0-14.9l0,0l23.6,0C348.8,457.4,355.5,464.1,355.5,472.3L355.5,472.3L355.5,472.3z"/>
<polygon class="st3" points="338.7,454.1 350.4,450.4 341.8,403.5 324.5,408.9 "/>
<path class="st4" d="M376.4,454.2l-36.8,11.5l0,0l-4.5-14.2l0,0l22.6-7.1C365.5,442,373.9,446.3,376.4,454.2L376.4,454.2
	L376.4,454.2z"/>
<path class="st4" d="M330.5,432.3l-22.4-58.9c-5,1.2-47.2,10.5-61.4-4.5c-4.8-5.2-5.8-12.6-2.8-22.2l8.2-10.4l0.3,0
	c3.1,0.2,76.4,4.3,81.5,26.4c4.2,18.6,12,53.4,14.2,63.6c0.5,2.2-0.7,4.4-2.8,5.2l-9,3.4c-0.5,0.2-1,0.3-1.6,0.3
	C332.8,435.2,331.2,434,330.5,432.3z"/>
<path class="st4" d="M317.5,439.3l-22.4-58.9c-5,1.2-47.2,10.5-61.4-4.5c-4.8-5.2-5.8-12.6-2.8-22.2l8.2-10.4l0.3,0
	c3.1,0.2,76.4,4.3,81.5,26.4c4.2,18.6,12,53.4,14.2,63.6c0.5,2.2-0.7,4.4-2.8,5.2l-9,3.4c-0.5,0.2-1,0.3-1.6,0.3
	C319.8,442.2,318.2,441,317.5,439.3z"/>
<path class="st3" d="M347.8,298.2c-0.3,0.4-0.6,0.9-0.9,1.4l-49.3,5.2l-7.1-9.7l-16.1,8.8l13.9,23.6l60.5-15.4
	c4.2,4,10.8,4,14.8-0.2c4-4.2,4-10.8-0.2-14.8s-10.8-4-14.8,0.2C348.4,297.5,348.1,297.8,347.8,298.2L347.8,298.2z"/>
<path class="st5" d="M230.6,356.8c-1.4-1-2.1-2.7-1.8-4.3c2.8-18.3-0.4-44.6-3.6-63.4c-2.3-13.5,6.8-26.3,20.3-28.6
	c2.4-0.4,4.9-0.5,7.3-0.2c3.3,0.4,6.7,1.1,9.9,2l0,0c11.2,2.8,18.9,13,18.6,24.5c-0.5,18.2,3.2,40.8,4.8,49.7
	c0.2,1.2-0.1,2.5-0.8,3.5c-0.7,1-1.9,1.6-3.1,1.8c-17.8,1.8-37,10.5-46.9,15.5c-0.6,0.3-1.3,0.5-2,0.5
	C232.3,357.7,231.3,357.4,230.6,356.8z"/>
<path class="st5" d="M278.7,309.5c-1.1-0.4-2-1.3-2.5-2.4l-9.9-22.9c-2.5-5.8,0.2-12.6,6-15.1c5.8-2.5,12.6,0.2,15.1,6l9.9,22.9
	c1,2.3-0.1,4.9-2.3,5.9l-12.8,5.6C281,309.9,279.8,309.9,278.7,309.5L278.7,309.5z"/>
<path class="st3" d="M300.8,296.2c-0.3,0.4-0.6,0.9-0.9,1.4l-49.3,5.2l-7.1-9.7l-16.1,8.8l13.9,23.6l60.5-15.4
	c4.2,4,10.8,4,14.8-0.2c4-4.2,4-10.8-0.2-14.8s-10.8-4-14.8,0.2C301.4,295.5,301.1,295.8,300.8,296.2L300.8,296.2z"/>
<path class="st5" d="M231.7,310.5c-1.1-0.4-2-1.3-2.5-2.4l-9.9-22.9c-2.5-5.8,0.1-12.6,6-15.1c5.8-2.5,12.6,0.1,15.1,6c0,0,0,0,0,0
	l9.9,22.9c1,2.3-0.1,4.9-2.3,5.9l-12.8,5.6C234,310.9,232.8,310.9,231.7,310.5L231.7,310.5z"/>
<circle class="st3" cx="250.9" cy="227.9" r="24.6"/>
<path class="st4" d="M233.3,244.7c-0.4-1.1,0.2-2.3,1.3-2.7c0.2-0.1,0.3-0.1,0.5-0.1c1.3,0.1,2.6,0.7,3.5,1.7c0.9,1,1.9,1.9,3.1,2.6
	c1.2,0.6,2.8,0.5,3.5-0.6c0.6-1.1,0.2-2.5-0.2-3.8c-1-3.2-1.5-6.5-1.6-9.8c-0.1-3.7,0.4-7.6,2.5-10.4c2.6-3.7,7.4-5.1,11.8-5
	c4.5,0.1,8.9,1.5,13.3,2.4c1.5,0.3,3.3,0.5,4.4-0.7c1.1-1.3,0.7-3.3,0.2-5c-1.2-4.4-2.5-9-5.3-12.6c-3-3.7-7.3-6.1-12.1-6.8
	c-4.5-0.6-9.2,0-13.5,1.5c-7,2.2-13.2,6.5-17.7,12.3c-4.6,6.2-6.6,13.9-5.6,21.6c1,6.7,4.6,12.7,9.9,16.9L233.3,244.7z"/>
<path class="st6" d="M139.6,303.9c1.2-13.3,4.6-26.3,10.1-38.5c1.5-3.4,3.2-6.7,5-10c0.2-0.4,0.1-0.8-0.3-1c-0.3-0.2-0.8-0.1-1,0.3
	c-6.6,11.8-11.3,24.7-13.8,38c-0.7,3.7-1.2,7.5-1.6,11.2C138,304.8,139.5,304.8,139.6,303.9z"/>
<circle class="st5" cx="158.3" cy="248.4" r="9.4"/>
<path class="st6" d="M140.5,304.1c0.8-8.6,3-17.1,6.6-25c1-2.2,2.1-4.4,3.3-6.5c0.1-0.2,0-0.5-0.2-0.7c-0.2-0.1-0.5,0-0.6,0.2
	c-4.3,7.7-7.3,16-8.9,24.6c-0.4,2.4-0.8,4.8-1,7.3C139.5,304.7,140.5,304.7,140.5,304.1z"/>
<circle class="st5" cx="152.7" cy="268.1" r="6.1"/>
<path class="st6" d="M139.3,303.5c-4.7-7.3-8.1-15.3-10.2-23.7c-0.6-2.3-1-4.7-1.4-7.1c0-0.3-0.3-0.4-0.6-0.4
	c-0.3,0-0.4,0.3-0.4,0.5c1.3,8.7,4.1,17.1,8.1,24.9c1.1,2.2,2.4,4.3,3.7,6.4C138.9,304.7,139.6,304.1,139.3,303.5L139.3,303.5z"/>
<ellipse transform="matrix(0.9951 -9.853768e-02 9.853768e-02 0.9951 -25.7604 13.7912)" class="st5" cx="126.7" cy="267.7" rx="6.1" ry="6.1"/>
<path class="st2" d="M120.6,309v-12c0-2.5,2-4.5,4.5-4.5h28c2.5,0,4.5,2,4.5,4.5v12c0,2.5-2,4.5-4.5,4.5h-28
	C122.6,313.5,120.6,311.4,120.6,309z"/>
<path class="st2" d="M292.6,305.5h79c1.9,0,3.5,1.6,3.5,3.5l0,0c0,1.9-1.6,3.5-3.5,3.5h-79c-1.9,0-3.5-1.6-3.5-3.5l0,0
	C289.1,307,290.6,305.5,292.6,305.5z"/>
<path class="st2" d="M424.6,312.5h-89c-3.6,0-6.5-2.9-6.5-6.5v-49c0-3.6,2.9-6.5,6.5-6.5h89c3.6,0,6.5,2.9,6.5,6.5v49
	C431.1,309.6,428.2,312.5,424.6,312.5z"/>
<circle class="st7" cx="380.1" cy="281.5" r="6"/>
<path class="st2" d="M651.1,378.5c0-7.7-29.1-14-65-14s-65,6.3-65,14c0,5,12,9.3,30,11.8V467c0,3.6,2.9,6.5,6.5,6.5s6.5-2.9,6.5-6.5
	v-75.3c6.9,0.5,14.3,0.8,22,0.8s15.1-0.3,22-0.8V467c0,3.6,2.9,6.5,6.5,6.5s6.5-2.9,6.5-6.5v-76.7
	C639.1,387.8,651.1,383.4,651.1,378.5z"/>
<circle class="st4" cx="593.3" cy="222.3" r="28"/>
<polygon class="st8" points="523.6,461.9 511.3,461.9 505.5,414.6 523.6,414.6 "/>
<path class="st4" d="M502.6,458.4h23.6l0,0v14.9l0,0h-38.5l0,0l0,0C487.7,465.1,494.3,458.4,502.6,458.4
	C502.6,458.4,502.6,458.4,502.6,458.4z"/>
<polygon class="st8" points="504.4,455.1 492.7,451.4 501.3,404.5 518.6,409.9 "/>
<path class="st4" d="M485.4,445.4l22.6,7.1l0,0l-4.5,14.2l0,0l-36.8-11.5l0,0l0,0C469.2,447.3,477.6,443,485.4,445.4z"/>
<path class="st4" d="M508.4,436.2c-0.5,0-1.1-0.1-1.6-0.3l-9-3.4c-2.1-0.8-3.3-3-2.8-5.2c2.3-10.2,10-45,14.2-63.6
	c5-22.1,78.3-26.2,81.5-26.4l0.3,0l8.2,10.4c3,9.6,2,17.1-2.8,22.2c-14.1,15-56.3,5.7-61.4,4.5l-22.4,58.9
	C512,435,510.3,436.2,508.4,436.2z"/>
<path class="st4" d="M521.4,443.2c-0.5,0-1.1-0.1-1.6-0.3l-9-3.4c-2.1-0.8-3.3-3-2.8-5.2c2.3-10.2,10-45,14.2-63.6
	c5-22.1,78.3-26.2,81.5-26.4l0.3,0l8.2,10.4c3,9.6,2,17.1-2.8,22.2c-14.1,15-56.3,5.7-61.4,4.5l-22.4,58.9
	C525,442,523.3,443.2,521.4,443.2z"/>
<path class="st8" d="M495.3,299.2c0.3,0.4,0.6,0.9,0.9,1.4l49.3,5.2l7.1-9.7l16.1,8.8l-13.9,23.6L494.3,313c-4.2,4-10.8,4-14.8-0.2
	s-4-10.8,0.2-14.8s10.8-4,14.8,0.2C494.8,298.5,495.1,298.8,495.3,299.2L495.3,299.2z"/>
<path class="st5" d="M609.9,358.7c-0.7,0-1.4-0.2-2-0.5c-9.9-5-29.1-13.7-46.9-15.5c-1.2-0.1-2.4-0.8-3.1-1.8
	c-0.8-1-1.1-2.3-0.8-3.5c1.6-8.9,5.3-31.5,4.8-49.7c-0.3-11.5,7.4-21.7,18.6-24.5l0,0c3.3-0.9,6.6-1.5,9.9-2
	c13.6-1.7,26,7.9,27.7,21.5c0.3,2.4,0.3,4.9-0.2,7.3c-3.2,18.8-6.4,45.1-3.6,63.4c0.3,1.7-0.4,3.4-1.8,4.3
	C611.8,358.4,610.9,358.7,609.9,358.7z"/>
<path class="st5" d="M562.8,310.8c-0.6,0-1.2-0.1-1.8-0.4l-12.8-5.6c-2.3-1-3.3-3.6-2.3-5.9l9.9-22.9c2.5-5.8,9.3-8.5,15.1-6
	c5.8,2.5,8.5,9.3,6,15.1c0,0,0,0,0,0l-9.9,22.9C566.2,309.7,564.6,310.8,562.8,310.8L562.8,310.8z"/>
<circle class="st8" cx="592.2" cy="228.9" r="24.6"/>
<path class="st4" d="M567.2,216.8c11.6,7.1,24.7,11.4,38.3,12.6l-4-4.8c2.9,1.1,6,1.7,9.2,1.8c3.1,0,6.4-1.3,8.2-3.8
	c1.6-2.6,1.8-5.8,0.6-8.6c-1.2-2.8-3.1-5.2-5.6-7c-8.7-6.9-20.3-9-30.8-5.5c-3.6,1.1-6.8,3.1-9.2,5.9c-2.3,2.9-6.8,5.4-5.6,8.9
	L567.2,216.8z"/>
<path class="st4" d="M592.6,207.2c-0.2,3.1,3.3,5.4,6.4,5.1s5.7-2.3,8.2-4.1c2.5-1.9,5.2-3.7,8.3-3.8c4.1,0,7.6,3.3,9.1,7.1
	c1.5,3.8,1.4,8,1.2,12.1l-0.8,24.1c-0.2,5.4-0.1,11.5,3.8,15.2c3.7,3.5,9.5,3.6,14.4,2.4s9.6-3.6,14.7-4.3
	c-3.7,0.2-7.3-0.3-10.8-1.5c-13.6-5-20.7-20.1-15.7-33.7c1.5-4,3.9-7.6,5.7-11.5c1.8-3.9,3-8.3,1.9-12.5c-1.4-5-6.3-8.6-11.4-9.6
	c-5.1-1-10.5,0.1-15.4,1.9c-7.7,2.8-14.6,7.3-20.4,13.2"/>
<polygon class="st0" points="482.2,281.1 538.8,282.4 546.9,342.9 494.7,344 "/>
<path class="st8" d="M542.3,297.2c0.3,0.4,0.6,0.9,0.9,1.4l49.3,5.2l7.1-9.7l16.1,8.8l-13.9,23.6L541.3,311c-4.2,4-10.8,4-14.8-0.2
	s-4-10.8,0.2-14.8s10.8-4,14.8,0.2C541.8,296.5,542.1,296.8,542.3,297.2L542.3,297.2z"/>
<path class="st5" d="M609.8,311.8c-0.6,0-1.2-0.1-1.8-0.4l-12.8-5.6c-2.3-1-3.3-3.6-2.3-5.9l9.9-22.9c2.5-5.8,9.3-8.5,15.1-6
	c5.8,2.5,8.5,9.3,6,15.1c0,0,0,0,0,0l-9.9,22.9C613.2,310.7,611.6,311.8,609.8,311.8L609.8,311.8z"/>
<path class="st6" d="M493.6,311.5h-398c-3.6,0-6.5,2.9-6.5,6.5s2.9,6.5,6.5,6.5h11.5V466c0,3.6,2.9,6.5,6.5,6.5s6.5-2.9,6.5-6.5V337
	l72.9,132.1c1.8,3.1,5.8,4.2,8.9,2.4c3.1-1.8,4.2-5.8,2.4-8.9L128,324.5h348v0.1l-76.1,138c-1.8,3.1-0.7,7.1,2.4,8.9
	s7.1,0.7,8.9-2.4l0,0l64.9-117.6V466c0,3.6,2.9,6.5,6.5,6.5s6.5-2.9,6.5-6.5V327.9l1.9-3.4h2.6c3.6,0,6.5-2.9,6.5-6.5
	S497.2,311.5,493.6,311.5L493.6,311.5z"/>
<path class="st6" d="M739.5,473.9H1.2c-0.7,0-1.2-0.5-1.2-1.2c0-0.7,0.5-1.2,1.2-1.2h738.3c0.7,0,1.2,0.5,1.2,1.2
	C740.7,473.4,740.1,473.9,739.5,473.9z"/>
</svg>
