<svg xmlns="http://www.w3.org/2000/svg" viewBox="0 0 714.64 482.6"><defs><style>.cls-1{fill:#3f3d56;}.cls-2{fill:#ccc;}.cls-3{fill:#06ccd6;}.cls-4{fill:#fff;}.cls-5{fill:#ffb8b8;}.cls-6{fill:#2f2e41;}</style></defs><title>Fichier 1</title><g id="Calque_2" data-name="Calque 2"><g id="aaba0e37-9041-4e47-99c0-3bc98a69ed5f"><path class="cls-1" d="M705.84,0h-607a8.71,8.71,0,0,0-8.7,8.7V420a8.71,8.71,0,0,0,8.7,8.7h607a8.35,8.35,0,0,0,6.6-3.1c.1-.1.1-.2.2-.2a10.71,10.71,0,0,0,1.3-2.1,9.28,9.28,0,0,0,.7-3.3V8.7A8.86,8.86,0,0,0,705.84,0ZM712,420a6.74,6.74,0,0,1-1,3.4,6.11,6.11,0,0,1-2.4,2.1,5.92,5.92,0,0,1-2.9.7h-607a6.23,6.23,0,0,1-6.2-6.2V8.7a6.23,6.23,0,0,1,6.2-6.2h607a6.23,6.23,0,0,1,6.2,6.2V420Z"/><rect class="cls-1" x="91.34" y="34.9" width="622" height="2.5"/><circle class="cls-1" cx="112.54" cy="18.7" r="7.5"/><circle class="cls-1" cx="134.04" cy="18.7" r="7.5"/><circle class="cls-1" cx="155.54" cy="18.7" r="7.5"/><path class="cls-1" d="M558.44,92.7h-312a13,13,0,0,1,0-26h312a13,13,0,0,1,0,26Zm-312-24a11,11,0,0,0,0,22h312a11,11,0,0,0,0-22Z"/><path class="cls-2" d="M249,172.2H221a8,8,0,0,1,0-16h28a8,8,0,1,1,0,16Z"/><path class="cls-2" d="M282,199.2H221a8,8,0,0,1,0-16h61a8,8,0,0,1,0,16Z"/><path class="cls-2" d="M254,290.2H226a8,8,0,0,1,0-16h28a8,8,0,1,1,0,16Z"/><path class="cls-2" d="M287,317.2H226a8,8,0,0,1,0-16h61a8,8,0,0,1,0,16Z"/><path class="cls-2" d="M438,287.2H410a8,8,0,0,1,0-16h28a8,8,0,0,1,0,16Z"/><path class="cls-2" d="M471,314.2H410a8,8,0,0,1,0-16h61a8,8,0,0,1,0,16Z"/><path class="cls-2" d="M435,177.2H407a8,8,0,0,1,0-16h28a8,8,0,0,1,0,16Z"/><path class="cls-2" d="M468,204.2H407a8,8,0,0,1,0-16h61a8,8,0,0,1,0,16Z"/><path class="cls-2" d="M622,171.2H594a8,8,0,0,1,0-16h28a8,8,0,0,1,0,16Z"/><path class="cls-2" d="M655,198.2H594a8,8,0,0,1,0-16h61a8,8,0,0,1,0,16Z"/><circle class="cls-3" cx="171.64" cy="177.7" r="30"/><path class="cls-4" d="M185.64,191.2h-28a3,3,0,0,1-3-3v-21a3,3,0,0,1,3-3h7.9a3.14,3.14,0,0,1,2.6,1.4l2.2,3.6h15.4a3,3,0,0,1,3,3v16A3.17,3.17,0,0,1,185.64,191.2Zm-28-25a.94.94,0,0,0-1,1v21a.94.94,0,0,0,1,1h28a.94.94,0,0,0,1-1v-16a.94.94,0,0,0-1-1h-16.5l-2.8-4.5a1.05,1.05,0,0,0-.9-.5Z"/><circle class="cls-3" cx="355.64" cy="182.7" r="30"/><path class="cls-4" d="M368.64,201.7h-26a3,3,0,0,1-3-3v-32a3,3,0,0,1,3-3h18.8a2.81,2.81,0,0,1,1.9.7l7.2,5.8a3,3,0,0,1,1.1,2.3v26.2A3,3,0,0,1,368.64,201.7Zm-26-36a.94.94,0,0,0-1,1v32a.94.94,0,0,0,1,1h26a.94.94,0,0,0,1-1V172.5a.91.91,0,0,0-.4-.8l-7.2-5.8a1.42,1.42,0,0,0-.6-.2Z"/><path class="cls-4" d="M363.64,177.7h-16a1,1,0,0,1,0-2h16a1,1,0,0,1,0,2Z"/><path class="cls-4" d="M363.64,183.7h-16a1,1,0,0,1,0-2h16a1,1,0,0,1,0,2Z"/><path class="cls-4" d="M363.64,189.7h-16a1,1,0,0,1,0-2h16a1,1,0,0,1,0,2Z"/><circle class="cls-3" cx="540.64" cy="176.7" r="30"/><path class="cls-4" d="M554.64,187.7h-28a3,3,0,0,1-3-3v-16a3,3,0,0,1,3-3h28a3,3,0,0,1,3,3v16A3,3,0,0,1,554.64,187.7Zm-28-20a.94.94,0,0,0-1,1v16a.94.94,0,0,0,1,1h28a.94.94,0,0,0,1-1v-16a.94.94,0,0,0-1-1Z"/><path class="cls-4" d="M540.64,179.3a3,3,0,0,1-1.6-.5l-14.9-9.3a1,1,0,1,1,1.1-1.7l14.9,9.3a1.08,1.08,0,0,0,1.1,0l14.9-9.3a1,1,0,0,1,1.1,1.7l-14.9,9.3A3.69,3.69,0,0,1,540.64,179.3Z"/><circle class="cls-3" cx="171.64" cy="295.7" r="30"/><path class="cls-4" d="M185.64,306.7h-28a3,3,0,0,1-3-3v-16a3,3,0,0,1,3-3h28a3,3,0,0,1,3,3v16A3,3,0,0,1,185.64,306.7Zm-28-20a.94.94,0,0,0-1,1v16a.94.94,0,0,0,1,1h28a.94.94,0,0,0,1-1v-16a.94.94,0,0,0-1-1Z"/><path class="cls-4" d="M181.24,306.7h-20.1a2,2,0,0,1-2-2,1.69,1.69,0,0,1,.3-1l6.1-10.5a1.9,1.9,0,0,1,2.7-.7,1.58,1.58,0,0,1,.7.7l3.9,6.8,2.3-3.9a1.9,1.9,0,0,1,2.7-.7,1.58,1.58,0,0,1,.7.7l4.4,7.6a2,2,0,0,1-1.7,3Zm0-2h0l-4.4-7.6-3.1,5.4a1.05,1.05,0,0,1-.9.5h0a1.05,1.05,0,0,1-.9-.5l-4.8-8.3L161,304.7Z"/><circle class="cls-4" cx="182.64" cy="290.7" r="2"/><circle class="cls-3" cx="357.64" cy="292.7" r="30"/><path class="cls-4" d="M357.64,293.2a9,9,0,1,1,9-9A9.09,9.09,0,0,1,357.64,293.2Zm0-16a7,7,0,1,0,7,7A7,7,0,0,0,357.64,277.2Z"/><path class="cls-4" d="M365.64,310.2h-16a3.54,3.54,0,0,1-3.5-3.5,11.5,11.5,0,1,1,23,0A3.61,3.61,0,0,1,365.64,310.2Zm-8-13a9.56,9.56,0,0,0-9.5,9.5,1.54,1.54,0,0,0,1.5,1.5h16a1.54,1.54,0,0,0,1.5-1.5A9.43,9.43,0,0,0,357.64,297.2Z"/><polygon class="cls-5" points="68.04 471.2 80.34 471.2 86.14 423.9 68.04 423.9 68.04 471.2"/><path class="cls-6" d="M103.94,482.6H65.44V467.7H89a14.87,14.87,0,0,1,14.9,14.9Z"/><polygon class="cls-5" points="22.04 471.2 34.34 471.2 40.14 423.9 22.04 423.9 22.04 471.2"/><path class="cls-6" d="M57.94,482.6H19.44V467.7H43a14.87,14.87,0,0,1,14.9,14.9Z"/><path class="cls-5" d="M23.54,330.4a10.7,10.7,0,0,0,3.2-14.8,7.89,7.89,0,0,0-1.2-1.5l8.1-114.6-23.3,2.3L9.74,314a10.87,10.87,0,0,0,.4,15.3,11.15,11.15,0,0,0,13.4,1.1Z"/><path class="cls-6" d="M68.44,447.4a4.54,4.54,0,0,1-4.5-4l-7.1-59.6a3.57,3.57,0,0,0-3.9-3.1,3.4,3.4,0,0,0-3,2.9l-9,57.1a4.42,4.42,0,0,1-4.4,3.8H21.94a4.48,4.48,0,0,1-4.5-4.5h0l6.9-126.5a4.42,4.42,0,0,1,3.9-4.4l54-7.8a4.44,4.44,0,0,1,5.1,3.8v.7l-.9,136.6a4.58,4.58,0,0,1-4.3,4.5l-13.5.6C68.54,447.4,68.54,447.4,68.44,447.4Z"/><path class="cls-1" d="M40.44,318.3a43.88,43.88,0,0,1-15.2-2.7,4.44,4.44,0,0,1-2.9-4c-.5-10.3-3.2-63.5-11.1-96A33.13,33.13,0,0,1,23.84,181c.4-.3.9-.6,1.3-.9a32.55,32.55,0,0,1,31.4-2.5,33.42,33.42,0,0,1,19.4,26l12.9,96.1a4.65,4.65,0,0,1-.9,3.4,4.07,4.07,0,0,1-3.1,1.7c-4.5.4-13.8,2.2-25.7,8.8A39,39,0,0,1,40.44,318.3Z"/><path class="cls-1" d="M24.64,238.6l-21.3-5.8a4.56,4.56,0,0,1-3.2-5.5l7.5-27.6a12.37,12.37,0,0,1,24.3,3.9l-1.7,30.9a4.4,4.4,0,0,1-4.7,4.2A1.41,1.41,0,0,1,24.64,238.6Z"/><circle class="cls-5" cx="48.34" cy="140" r="24.6"/><path class="cls-5" d="M137.34,188.3a8.75,8.75,0,0,0-.2,1.6l-43,24.8-10.4-6-11.1,14.6,22.3,15.9,49-38.7a10.5,10.5,0,1,0-6.2-13.5A5,5,0,0,0,137.34,188.3Z"/><path class="cls-1" d="M90.54,215.9,72,227.9a4.49,4.49,0,0,1-6.2-1.3l-15.6-24A12.44,12.44,0,0,1,69.44,187l21.9,21.9a4.47,4.47,0,0,1,0,6.4A5.55,5.55,0,0,1,90.54,215.9Z"/><path class="cls-6" d="M30.94,159.4c4.6,4.9,13.1,2.3,13.7-4.4v-1.6c-.3-3-2-5.6-1.6-8.8a4.85,4.85,0,0,1,.8-2.1c3.7-4.9,12.2,2.2,15.7-2.2,2.1-2.7-.4-7,1.3-10,2.1-4,8.5-2,12.5-4.2,4.4-2.4,4.2-9.2,1.2-13.4-3.6-5-9.8-7.7-15.9-8.1s-12.3,1.3-18,3.5c-6.5,2.5-13,6.1-17,11.8-4.9,7-5.3,16.3-2.9,24.5C22.14,149.4,27.24,155.5,30.94,159.4Z"/></g></g></svg>