<svg xmlns="http://www.w3.org/2000/svg" viewBox="0 0 902.5 483.68"><defs><style>.cls-1{fill:#e6e6e6;}.cls-2{fill:#06ccd6;}.cls-3{fill:#3f3d56;stroke:#000;stroke-miterlimit:10;stroke-width:3px;}.cls-4{fill:#ffb8b8;}.cls-5{fill:#2f2e41;}</style></defs><g id="Calque_2" data-name="Calque 2"><g id="b849a2f0-74e0-42be-b224-12e88fa50e48"><path class="cls-1" d="M404.29,479.9H632.51c9,0,9-14,0-14H404.29C395.28,465.9,395.26,479.9,404.29,479.9Z"/><path class="cls-2" d="M342.67,175.63H115.22a9.07,9.07,0,0,0-9.07,9.06v45.18c11.35.27,18.71,9.63,20.5,21v41h.86a.52.52,0,0,1,.52.52v21.8a.51.51,0,0,1-.52.51h-.86V446.41c0,2.89,0,8.17,0,8.17H342.67a9.06,9.06,0,0,0,9.06-9.06V184.69A9.06,9.06,0,0,0,342.67,175.63Z"/><path class="cls-2" d="M765.27,31.28V269.87a4.33,4.33,0,0,1-4.33,4.33H371.8a4.33,4.33,0,0,1-4.34-4.33V165.34a18.66,18.66,0,0,0-18.64-18.64H278.55a4.33,4.33,0,0,1-4.33-4.34V31.28A4.33,4.33,0,0,1,278.55,27H760.94A4.33,4.33,0,0,1,765.27,31.28Z"/><path class="cls-3" d="M789.83,309.06H367.91v-1.73h420.2V16.15A12.94,12.94,0,0,0,775.19,3.22h-516a12.93,12.93,0,0,0-12.92,12.93V145.58H244.5V16.15A14.66,14.66,0,0,1,259.15,1.5h516a14.66,14.66,0,0,1,14.64,14.65Z"/><path class="cls-3" d="M749.85,361.61H367.91v-1.73H749.85a38.3,38.3,0,0,0,38.26-38.25V309.06H367.91v-1.73H789.83v14.3A40,40,0,0,1,749.85,361.61Z"/><path class="cls-3" d="M636.5,446c-21.29-20.44-35.3-47.12-39.8-84.42H439.77c-1.59,34.9-15.51,61.07-40.62,84.33l-2.65.09c25.9-23.47,40.17-49.84,41.59-85.32l0-.83H598.23l.09.77c4.42,37.93,18.72,64.78,40.54,85.25Z"/><path class="cls-3" d="M348.4,481.68H106.67V480H348.4a18.66,18.66,0,0,0,18.65-18.64V165.74a18.67,18.67,0,0,0-18.65-18.65H106.67A18.67,18.67,0,0,0,88,165.74v63.78H86.31V165.74a20.38,20.38,0,0,1,20.36-20.37H348.4a20.38,20.38,0,0,1,20.37,20.37V461.31A20.4,20.4,0,0,1,348.4,481.68Z"/><path class="cls-2" d="M227.54,167.17a5.84,5.84,0,1,1,5.84-5.84A5.84,5.84,0,0,1,227.54,167.17Zm0-10.33a4.49,4.49,0,1,0,4.49,4.49h0a4.49,4.49,0,0,0-4.49-4.49Z"/><path class="cls-2" d="M227.54,475.07a7.46,7.46,0,1,1,7.45-7.45A7.46,7.46,0,0,1,227.54,475.07Zm0-13.18a5.73,5.73,0,1,0,5.73,5.73h0A5.73,5.73,0,0,0,227.54,461.89Z"/><path class="cls-3" d="M104.24,482.18h-80A22.75,22.75,0,0,1,1.5,459.45V252.24a22.75,22.75,0,0,1,22.72-22.72h80A22.74,22.74,0,0,1,127,252.24v37.09a2.22,2.22,0,0,1,1.38,2.06v24.13a2.23,2.23,0,0,1-1.38,2.07V459.45A22.75,22.75,0,0,1,104.24,482.18Zm-80-250.93a21,21,0,0,0-21,21V459.45a21,21,0,0,0,21,21h80a21,21,0,0,0,21-21V316h.86a.52.52,0,0,0,.52-.52V291.39a.51.51,0,0,0-.52-.51h-.86V252.24a21,21,0,0,0-21-21Z"/><path class="cls-2" d="M103.94,239.6H93.8a7.53,7.53,0,0,1-7,10.37H42.34a7.53,7.53,0,0,1-7.53-7.53,7.45,7.45,0,0,1,.56-2.84H25.9a15.84,15.84,0,0,0-15.84,15.84V456.26A15.84,15.84,0,0,0,25.9,472.1h78a15.85,15.85,0,0,0,15.85-15.84h0V255.44A15.85,15.85,0,0,0,103.94,239.6Z"/><path class="cls-3" d="M637,481.36H398.4a18.1,18.1,0,1,1,0-36.19H637a18.1,18.1,0,0,1,0,36.19ZM398.4,446.9a16.37,16.37,0,1,0,0,32.73H637a16.37,16.37,0,1,0,0-32.73Z"/><polygon class="cls-4" points="810.3 343.61 816.99 357.58 874.07 338.45 864.2 317.83 810.3 343.61"/><path class="cls-5" d="M816.9,390.74l-21-43.92h0l17-8.12h0L826.37,367a17.38,17.38,0,0,1-8.17,23.17l-1.3.62Z"/><polygon class="cls-4" points="796.85 468.39 812.33 467.87 812.98 407.61 794.84 408.68 796.85 468.39"/><path class="cls-5" d="M842.37,482.06H793.69v-18.8H825a17.37,17.37,0,0,1,17.37,17.37v1.43Z"/><path class="cls-5" d="M798.12,459.34a5.8,5.8,0,0,1-5.63-4.42c-8.48-34.07-40-205.75-12.13-239.46l.24-.3.37-.09c2-.5,38.88-11.93,60.55,5.92l.25.2,12.06,34.91,32.51,48.25a23.81,23.81,0,0,1-6.45,33l-.59.39-42.69,26.93a5.83,5.83,0,0,1-6.71-.47,5.92,5.92,0,0,1-1.75-2.44l-9-22.43A5.87,5.87,0,0,1,822,332l20-10a4.31,4.31,0,0,0,2.13-2.92,3.46,3.46,0,0,0-1.2-3l-23.21-20a3.5,3.5,0,0,0-5.79,2.78l5.76,151.93a5.84,5.84,0,0,1-4.92,6l-15.7,2.48A5.86,5.86,0,0,1,798.12,459.34Z"/><path class="cls-2" d="M838.17,227.18l-.4,0-57.89-4.28a5.25,5.25,0,0,1-4.57-7A55,55,0,0,0,776.57,184c-3.77-14.86-3.86-42.51-3.58-57.66a10.22,10.22,0,0,1,9.66-10v0l1.17,0c9.43.13,26.74.8,40.9,3.75a21.46,21.46,0,0,1,17.11,20.65c.32,14.07.37,33.12-1.23,43.94-1.35,9.13,1.14,26.67,2.74,36.31a5.25,5.25,0,0,1-4.32,6A6.09,6.09,0,0,1,838.17,227.18Z"/><path class="cls-4" d="M858.84,282.37a11.7,11.7,0,0,1-5.5-15.61,12.13,12.13,0,0,1,1-1.77l-26.74-115.3h20.22l23.6,113a11.76,11.76,0,0,1-12.63,19.65Z"/><path class="cls-4" d="M732.2,162.18l32-30.28,12.06,16.88-30.15,26.53,39.54,31.4c.29,0,.57,0,.86,0A12.66,12.66,0,1,1,774,221l-.13.13-41.15-35.67a15.72,15.72,0,0,1-1.59-22.17A14.28,14.28,0,0,1,732.2,162.18Z"/><path class="cls-2" d="M829.78,157.07a5.22,5.22,0,0,1-4.73-3,61.85,61.85,0,0,1-5.21-17c-1.39-9.62,5.3-15.34,12.1-16.58,6.62-1.22,14.68,1.69,16.74,10.94a24.12,24.12,0,0,1,.4,2.38c.82,7,1.6,12.46,2.31,16.21a5.24,5.24,0,0,1-4.19,6.12,5.51,5.51,0,0,1-.71.09l-16.44.82Z"/><circle class="cls-5" cx="806.86" cy="71.49" r="35"/><circle class="cls-4" cx="807.07" cy="80.57" r="28.66"/><path class="cls-2" d="M756.21,143.13a5.21,5.21,0,0,1-1.48-5.39,61.58,61.58,0,0,1,7.65-16.06c5.47-8,14.27-7.73,20.13-4.05,5.7,3.57,9.67,11.16,4.94,19.38a23.85,23.85,0,0,1-1.31,2c-4.13,5.73-7.24,10.28-9.25,13.52a5.24,5.24,0,0,1-7.22,1.68,4,4,0,0,1-.59-.42l-12.67-10.5Z"/><path class="cls-5" d="M800.06,40.23c-7-4.21-8.57-14.67-4.37-21.72s12.68-10.73,20.88-11c11.71-.34,23,5.49,31.22,13.86s13.6,19.08,17.72,30.05,7.09,22.34,11.15,33.33c2.08,5.64,4.65,11.43,9.42,15.1s12.34,4.32,16.42-.1c0,7.07-5.44,13.5-12.16,15.69S876,116,870.11,112.1C859.88,105.32,855,93,852.12,81s-4.21-24.45-9.88-35.33c-2.35-4.51-5.58-8.79-10.11-11.09s-10.57-2.14-14.22,1.4c-1.69,1.64-2.78,3.87-4.7,5.24a9.41,9.41,0,0,1-8.21.86,27.88,27.88,0,0,1-7.42-4.19"/><path class="cls-5" d="M730.66,87a29.38,29.38,0,0,0,41.11,6c.34-.26.68-.52,1-.79,2.38-1.94,4.6-4.61,4.45-7.68s-2.73-5.62-5.35-7.36a34.48,34.48,0,0,0-23.41-5.37c-4.67.62-9.36,2.33-12.67,5.69s-5,8.58-3.25,13"/></g></g></svg>