<?xml version="1.0" encoding="utf-8"?>
<!-- Generator: Adobe Illustrator 24.1.2, SVG Export Plug-In . SVG Version: 6.00 Build 0)  -->
<svg version="1.1" id="cf1d5875-955f-4eea-a065-83a6d89352b1"
	 xmlns="http://www.w3.org/2000/svg" xmlns:xlink="http://www.w3.org/1999/xlink" x="0px" y="0px" viewBox="0 0 625.3 730.2"
	 style="enable-background:new 0 0 625.3 730.2;" xml:space="preserve">
<style type="text/css">
	.st0{fill:url(#SVGID_1_);}
	.st1{fill:url(#SVGID_2_);}
	.st2{fill:#FFFFFF;}
	.st3{fill:#06CCD6;}
	.st4{fill:#DBDBDB;}
	.st5{fill:url(#SVGID_3_);}
</style>
<linearGradient id="SVGID_1_" gradientUnits="userSpaceOnUse" x1="695.0723" y1="-60.81" x2="695.0723" y2="642.9301" gradientTransform="matrix(0.98 -1.368338e-03 -1.410226e-03 -1.01 -287.4198 650.8391)">
	<stop  offset="1.000000e-02" style="stop-color:#808080;stop-opacity:0.25"/>
	<stop  offset="0.54" style="stop-color:#808080;stop-opacity:0.12"/>
	<stop  offset="1" style="stop-color:#808080;stop-opacity:0.1"/>
</linearGradient>
<path class="st0" d="M178.5,0.6L607.2,0c9.5,0,17.2,7.7,17.2,17.1l0.9,674.3c0,9.5-7.7,17.2-17.1,17.2l-428.7,0.6
	c-9.5,0-17.2-7.7-17.2-17.1l-0.9-674.3C161.3,8.3,169,0.6,178.5,0.6z"/>
<linearGradient id="SVGID_2_" gradientUnits="userSpaceOnUse" x1="695.9191" y1="-1.0799" x2="695.9191" y2="589.1701" gradientTransform="matrix(0.98 -1.368338e-03 -1.410226e-03 -1.01 -287.4198 650.8391)">
	<stop  offset="0" style="stop-color:#000000;stop-opacity:0.12"/>
	<stop  offset="0.55" style="stop-color:#000000;stop-opacity:9.000000e-02"/>
	<stop  offset="1" style="stop-color:#000000;stop-opacity:2.000000e-02"/>
</linearGradient>
<polygon class="st1" points="193.8,54.7 593.7,54.1 594.5,648.5 194.7,649 "/>
<path class="st2" d="M187.8,5.5l409-0.6c9.5,0,17.2,7.7,17.2,17.1l0.9,647.3c0,9.5-7.7,17.2-17.1,17.2l-409,0.6
	c-9.5,0-17.2-7.7-17.2-17.1l-0.9-647.3C170.7,13.2,178.3,5.5,187.8,5.5z"/>
<rect x="202.1" y="57.2" transform="matrix(1 -1.396262e-03 1.396262e-03 1 -0.4787 0.5499)" class="st3" width="382.9" height="571.7"/>
<circle class="st4" cx="394.1" cy="658.3" r="15.8"/>
<ellipse transform="matrix(1 -1.396329e-03 1.396329e-03 1 -4.523285e-02 0.4565)" class="st4" cx="326.9" cy="32.6" rx="5.3" ry="5.3"/>
<path class="st4" d="M354.6,29.4l65.5-0.1c0.8,0,1.4,0.6,1.4,1.4l0,2.4c0,0.8-0.6,1.4-1.4,1.4l-65.5,0.1c-0.8,0-1.4-0.6-1.4-1.4
	l0-2.4C353.2,30.1,353.8,29.4,354.6,29.4z"/>
<linearGradient id="SVGID_3_" gradientUnits="userSpaceOnUse" x1="443.6558" y1="-71.2574" x2="443.6558" y2="475.3826" gradientTransform="matrix(1 -1.396263e-03 -1.438151e-03 -1.03 -286.6861 660.3079)">
	<stop  offset="1.000000e-02" style="stop-color:#808080;stop-opacity:0.25"/>
	<stop  offset="0.54" style="stop-color:#808080;stop-opacity:0.12"/>
	<stop  offset="1" style="stop-color:#808080;stop-opacity:0.1"/>
</linearGradient>
<path class="st5" d="M10,169.3l292.6-0.4c5.5,0,10,4.5,10,10l0.8,541c0,5.5-4.5,10-10,10l-292.6,0.4c-5.5,0-10-4.5-10-10L0,179.3
	C0,173.7,4.5,169.3,10,169.3z"/>
<path class="st2" d="M17.2,175l278.2-0.4c5.5,0,10,4.5,10,10l0.7,513.8c0,5.5-4.5,10-10,10l-278.2,0.4c-5.5,0-10-4.5-10-10L7.2,185
	C7.2,179.5,11.7,175,17.2,175z"/>
<rect x="41.2" y="212.6" transform="matrix(1 -1.396262e-03 1.396262e-03 1 -0.5999 0.2191)" class="st3" width="230.8" height="434.4"/>
<ellipse transform="matrix(1 -1.396260e-03 1.396260e-03 1 -0.9468 0.2199)" class="st4" cx="157" cy="678.2" rx="18.4" ry="18.4"/>
<circle class="st4" cx="121.3" cy="192.4" r="3.7"/>
<path class="st4" d="M139.4,189.6l54.1-0.1c0.8,0,1.5,0.7,1.5,1.5l0,2.5c0,0.8-0.7,1.5-1.5,1.5l-54.1,0.1c-0.8,0-1.5-0.7-1.5-1.5
	l0-2.5C137.9,190.3,138.6,189.6,139.4,189.6z"/>
</svg>
