<?xml version="1.0" encoding="utf-8"?>
<!-- Generator: Adobe Illustrator 24.1.2, SVG Export Plug-In . SVG Version: 6.00 Build 0)  -->
<svg version="1.1" id="Calque_1" xmlns="http://www.w3.org/2000/svg" xmlns:xlink="http://www.w3.org/1999/xlink" x="0px" y="0px"
	 viewBox="0 0 111.6 111.6" style="enable-background:new 0 0 111.6 111.6;" xml:space="preserve">
<style type="text/css">
	.st0{fill:#F4A261;}
</style>
<g id="Calque_2_1_">
	<g id="Calque_1-2">
		<path class="st0" d="M22.2,3.8l85.6,85.6c5.1,5.1,5.1,13.3,0,18.4l0,0c-5.1,5.1-13.3,5.1-18.4,0L3.8,22.2
			c-5.1-5.1-5.1-13.3,0-18.4l0,0C8.9-1.3,17.1-1.3,22.2,3.8z"/>
		<path class="st0" d="M3.8,89.4L89.4,3.8c5.1-5.1,13.3-5.1,18.4,0l0,0c5.1,5.1,5.1,13.3,0,18.4l-85.6,85.6
			c-5.1,5.1-13.3,5.1-18.4,0l0,0C-1.3,102.7-1.3,94.4,3.8,89.4z"/>
	</g>
</g>
</svg>
