<svg xmlns="http://www.w3.org/2000/svg" viewBox="0 0 416.32 302.44"><defs><style>.cls-1{fill:#ededed;stroke:#dbdbdb;stroke-miterlimit:10;stroke-width:8px;}</style></defs><g id="Calque_2" data-name="Calque 2"><g id="Capa_1" data-name="Capa 1"><path class="cls-1" d="M76.43,291.08l-.48-.49a25.22,25.22,0,0,1-4.23-29.8c11-20.7,11-42.64,0-63.33A25.24,25.24,0,0,1,76,167.65l.49-.49a25,25,0,0,1,39.67,5.65c19.38,35.92,19.36,76.72,0,112.63A25,25,0,0,1,76.43,291.08Z"/><line class="cls-1" x1="309.79" y1="69.91" x2="409.91" y2="41.11"/><rect class="cls-1" x="307.76" y="44.66" width="104.17" height="21.69" rx="10.84" transform="translate(-1.32 101.64) rotate(-16.05)"/><line class="cls-1" x1="309.8" y1="115.11" x2="412.29" y2="107.67"/><rect class="cls-1" x="309.66" y="100.54" width="102.76" height="21.69" rx="10.84" transform="translate(-7.12 26.42) rotate(-4.15)"/><line class="cls-1" x1="308.79" y1="162.92" x2="410.91" y2="176.19"/><rect class="cls-1" x="349" y="118.07" width="21.69" height="102.98" rx="10.84" transform="translate(145.34 504.56) rotate(-82.6)"/><path class="cls-1" d="M240.15,4a16.87,16.87,0,0,0-13.46,6.73C214.85,26.41,182.33,64.13,143,64.94H67.32A63.31,63.31,0,0,0,4,128.26H4a63.31,63.31,0,0,0,63.32,63.31H143c39.35.81,71.87,38.53,83.71,54.21a16.87,16.87,0,0,0,13.46,6.73h.29a16.84,16.84,0,0,0,16.84-16.83V20.83A16.84,16.84,0,0,0,240.44,4Z"/></g></g></svg>