<svg id="Calque_1" data-name="Calque 1" xmlns="http://www.w3.org/2000/svg" viewBox="0 0 960 960"><defs><style>.cls-1{fill:#f4a261;}.cls-2{fill:#43c3ce;}</style></defs><path class="cls-1" d="M400.6,284.84V264.57A136.6,136.6,0,0,0,264.11,406.49C266.8,477.28,324.49,535,395.28,537.66A136.6,136.6,0,0,0,537.2,401.17H516.93a116.46,116.46,0,0,1-124.64,116c-57.3-4-103.72-50.42-107.73-107.73A116.46,116.46,0,0,1,400.6,284.84ZM555.31,401.17A154.72,154.72,0,0,1,394.58,555.76c-80.19-3-145.52-68.38-148.57-148.57A154.72,154.72,0,0,1,400.6,246.46V226.2c-99.25,0-179.46,83.07-174.77,183.33C230,499.08,302.7,571.75,392.24,575.94c100.27,4.69,183.33-75.52,183.33-174.77Z"/><path class="cls-2" d="M559.4,517.5v20.26A136.6,136.6,0,1,0,422.8,401.17h20.27A116.33,116.33,0,1,1,559.4,517.5ZM404.69,401.17A154.71,154.71,0,1,1,559.4,555.87v20.27c96.48,0,175-78.5,175-175s-78.5-175-175-175-175,78.49-175,175Z"/><path class="cls-2" d="M246.59,639.92v8.17q9-10.49,18.22-10.48,11.13,0,14.38,11.49a42.71,42.71,0,0,1,9.43-8.75,18.83,18.83,0,0,1,10.23-2.74q14.67,0,14.67,20.52v48.28h-21V667.17q0-9.61-6.22-9.62T279.91,667v39.39h-21V666a10.22,10.22,0,0,0-1.7-6.07,5.16,5.16,0,0,0-4.37-2.39,5.35,5.35,0,0,0-4.52,2.32,10.42,10.42,0,0,0-1.7,6.28v40.26h-21V639.92Z"/><path class="cls-2" d="M362.09,706.41v-8.74h-.29a34.94,34.94,0,0,1-7.41,8.31,13.69,13.69,0,0,1-8.42,2.67q-9.47,0-15.11-9.68t-5.63-26.31q0-16,5.71-25.44t15-9.47a14.16,14.16,0,0,1,8.46,2.49,32.22,32.22,0,0,1,7.22,8h.29v-8.31h21v66.49Zm0-33.61q0-16.54-8.1-16.55t-8.17,16.55q0,17.21,8.46,17.2Q362.08,690,362.09,672.8Z"/><path class="cls-1" d="M432.41,706.7v-9.47q-6.15,9-14.6,9a18.85,18.85,0,0,1-16.62-8.93q-5.93-8.93-5.93-25.26,0-16,5.78-25.08t15.83-9.1q9,0,15.1,9h.29v-7h21V701.5a43.45,43.45,0,0,1-3,16,23.48,23.48,0,0,1-10.59,11.93,32.94,32.94,0,0,1-16.63,4.33,32.07,32.07,0,0,1-17-4.84q-8-4.85-10.33-16.19h18.79q3.24,5.06,8.09,5.06a8.86,8.86,0,0,0,6.94-3.22A11.56,11.56,0,0,0,432.41,706.7Zm0-34.91q0-16.11-8.1-16.12c-2.65,0-4.74,1.31-6.28,3.91s-2.32,6.21-2.32,10.84q0,18.21,8.46,18.21Q432.41,688.63,432.41,671.79Z"/><path class="cls-1" d="M500.56,686.1h17.71q-5.06,22.41-25.3,22.41-12.64,0-20-9.62t-7.37-26.52q0-15.75,7.37-25.26a23.58,23.58,0,0,1,19.59-9.5,24.92,24.92,0,0,1,14.16,4.59,26.49,26.49,0,0,1,9.91,12.17q3.1,7.59,3.47,23.93H485q.44,14.82,8.24,14.81a6.82,6.82,0,0,0,4.77-2A8.2,8.2,0,0,0,500.56,686.1Zm-15.25-19.22h15.25q-.21-7-1.95-10.37a5.79,5.79,0,0,0-5.49-3.37,6.31,6.31,0,0,0-6,3.26Q485.32,659.66,485.31,666.88Z"/><path class="cls-1" d="M534.82,685q10.77,6.36,15.54,6.36a6.88,6.88,0,0,0,4.33-1.34,4,4,0,0,0,1.74-3.22,3.26,3.26,0,0,0-1.45-3q-1.44-.94-10.84-5.06-7.51-3.33-10.84-7.84A18.49,18.49,0,0,1,530,659.65a20.78,20.78,0,0,1,6.61-15.83q6.61-6.21,16.88-6.21,10,0,24.42,7.95l-8.09,15q-9.39-5.79-15.39-5.79-5.2,0-5.21,4.2a4.32,4.32,0,0,0,1.92,3.5,27.12,27.12,0,0,0,7,3.29q9.46,3.33,13.77,7.95a16.57,16.57,0,0,1,4.3,11.71A22,22,0,0,1,569.37,702q-6.79,6.51-17.35,6.51-11.41,0-24.43-8Z"/><path class="cls-1" d="M591.63,622.21h21v17.71h8.16v17.49h-8.31v49H591.63V657.26h-8V639.92h8Z"/><path class="cls-2" d="M667.59,686.1v17.35q-7.53,5.06-15.11,5.06-11.21,0-18-9.72t-6.76-26.13q0-15.54,6.94-25.3t17.92-9.75q7.67,0,15.11,5.42v17.2a16.85,16.85,0,0,0-7.66-2.24,9.79,9.79,0,0,0-8.17,4.08q-3.1,4.09-3.11,10.88,0,7.15,3,11.27a9.68,9.68,0,0,0,8.24,4.12A16.91,16.91,0,0,0,667.59,686.1Z"/><path class="cls-2" d="M705,637.61q14.38,0,21.9,9.57t7.52,26.64q0,16.7-7.81,25.83T705,708.8q-13.23,0-21-9.33t-7.76-25.65q0-17.05,7.4-26.64T705,637.61Zm.14,52.39a6.61,6.61,0,0,0,6.18-3.83q2.07-3.82,2.06-13.08t-2-12.86a6.52,6.52,0,0,0-6.07-3.69,6.65,6.65,0,0,0-6.07,3.58q-2.1,3.57-2.1,13.12Q697.07,690,705.09,690Z"/></svg>