<svg xmlns="http://www.w3.org/2000/svg" viewBox="0 0 106.78 96.23"><defs><style>.cls-1,.cls-2,.cls-3,.cls-4{fill:#ededed;stroke:#dbdbdb;}.cls-1,.cls-2,.cls-3{stroke-miterlimit:10;}.cls-1,.cls-4{stroke-width:3px;}.cls-2{stroke-width:2px;}.cls-4{stroke-linecap:round;stroke-linejoin:round;}</style></defs><g id="Calque_2" data-name="Calque 2"><g id="Capa_1" data-name="Capa 1"><path class="cls-1" d="M80.05,20.55l-4.88-1.17c0-.16-.08-.32-.13-.48,2.81-3,5.55-3.68,2.17-7.86-.65-1.52-5.19.89-6.2.91-.11-.12-.22-.23-.34-.34.93-4,3-6-2-7.91-1.33-1-4.05,3.37-4.91,3.89l-.48-.13C62,3.52,62.82.82,57.51,1.65c-1.64-.19-1.82,4.94-2.31,5.82l-.47.13c-3-2.81-3.68-5.55-7.87-2.17-1.51.65.9,5.19.91,6.2l-.34.34c-4-.93-6-3-7.9,2-1,1.33,3.37,4.05,3.89,4.91-.05.16-.09.32-.13.48-3.94,1.19-6.64.41-5.82,5.72-.18,1.64,4.94,1.82,5.82,2.31,0,.16.09.32.13.47-2.81,3-5.54,3.68-2.17,7.87.66,1.51,5.19-.9,6.2-.91l.35.34c-.94,4-3,6,2.05,7.9,1.32,1,4-3.37,4.91-3.88l.47.12c1.2,3.94.41,6.64,5.73,5.82,1.63.18,1.81-4.94,2.31-5.82l.47-.13c3,2.81,3.68,5.54,7.87,2.17,1.51-.66-.9-5.19-.92-6.2l.35-.35c4,.94,6,3,7.9-2.05,1-1.32-3.37-4-3.89-4.91,0-.15.09-.31.13-.47.88-.52,6-.82,5.81-2.43C80.79,24,81.64,20.77,80.05,20.55Zm-11.4,2.86c.18,12.22-19,12.22-18.83,0C49.64,11.19,68.83,11.19,68.65,23.41Z"/><path class="cls-1" d="M44.22,57.33l-4.87-1.18c0-.16-.09-.31-.13-.47,2.81-3,5.54-3.68,2.17-7.87-.66-1.51-5.19.9-6.2.91l-.35-.34c.94-4,3-6-2.05-7.9-1.32-1-4,3.37-4.91,3.89l-.47-.13c-1.2-3.94-.41-6.64-5.73-5.82-1.63-.18-1.81,4.94-2.3,5.83l-.48.13c-3-2.82-3.68-5.55-7.86-2.18-1.52.66.89,5.19.91,6.2l-.34.35c-4-.94-6-3-7.91,2-1,1.32,3.37,4,3.89,4.91,0,.16-.09.31-.13.47-3.94,1.2-6.64.42-5.81,5.73-.19,1.64,4.94,1.81,5.82,2.31,0,.16.09.31.13.47-2.81,3-5.55,3.68-2.17,7.87.65,1.51,5.19-.9,6.2-.92L12,72c-.93,4-3,6,2,7.9,1.33,1,4.05-3.37,4.91-3.89l.48.13c1.19,3.94.41,6.64,5.72,5.81,1.64.19,1.82-4.94,2.31-5.82l.47-.13c3,2.82,3.68,5.55,7.87,2.18,1.51-.66-.9-5.2-.91-6.21l.34-.34c4,.93,6,3,7.9-2.05,1-1.32-3.37-4-3.88-4.91l.12-.47c.89-.52,6-.83,5.82-2.43C45,60.79,45.82,57.54,44.22,57.33ZM32.83,60.18c.17,12.22-19,12.22-18.84,0C13.81,48,33,48,32.83,60.18Z"/><path class="cls-2" d="M33.36,19.7,30.53,19c0-.09-.05-.19-.08-.28,1.64-1.74,3.22-2.13,1.26-4.57-.38-.87-3,.53-3.6.53l-.2-.19c.54-2.33,1.73-3.47-1.19-4.59-.77-.57-2.35,1.95-2.85,2.25l-.28-.07c-.69-2.29-.24-3.86-3.32-3.38-.95-.11-1.05,2.87-1.34,3.38l-.28.08c-1.74-1.63-2.13-3.22-4.56-1.26-.88.38.52,3,.53,3.6l-.2.2C12.09,14.18,11,13,9.83,15.91c-.57.77,1.95,2.35,2.25,2.85,0,.09-.05.18-.07.28-2.29.69-3.86.24-3.38,3.32-.1.95,2.87,1.06,3.38,1.34,0,.09.05.19.08.28-1.63,1.74-3.22,2.13-1.26,4.57.38.87,3-.53,3.6-.53l.2.19c-.54,2.33-1.72,3.47,1.19,4.6.77.56,2.35-2,2.85-2.26l.28.07c.69,2.29.24,3.86,3.32,3.38.95.11,1.06-2.87,1.34-3.38l.28-.08c1.74,1.63,2.13,3.22,4.57,1.26.87-.38-.53-3-.53-3.6l.2-.2c2.32.54,3.46,1.73,4.59-1.19.56-.77-2-2.35-2.26-2.85,0-.09.05-.18.07-.28.51-.3,3.48-.47,3.38-1.4C33.79,21.71,34.29,19.83,33.36,19.7Zm-6.62,1.66c.1,7.1-11,7.1-10.94,0C15.7,14.26,26.84,14.26,26.74,21.36Z"/><path class="cls-1" d="M78.32,32.51h4a6.25,6.25,0,0,1,6.25,6.25V93.93a0,0,0,0,1,0,0H72.07a0,0,0,0,1,0,0V38.75A6.25,6.25,0,0,1,78.32,32.51Z" transform="translate(68.23 -38.28) rotate(45)"/><path class="cls-1" d="M97.41,40.21h3A6.75,6.75,0,0,1,107.15,47v2.1a0,0,0,0,1,0,0H90.66a0,0,0,0,1,0,0V47a6.75,6.75,0,0,1,6.75-6.75Z" transform="translate(60.53 -56.87) rotate(45)"/><polygon class="cls-3" points="64.05 91.15 62.23 92.97 54.74 94.13 49.41 88.8 50.57 81.31 52.38 79.49 64.05 91.15"/><path class="cls-3" d="M54.74,94.13l-3.68.57a2,2,0,0,1-2.22-2.23l.57-3.68Z"/><path class="cls-1" d="M52.38,79.49l-1.81,1.82-1.16,7.48-.59,3.76A1.89,1.89,0,0,0,51,94.71l3.76-.58L62.23,93l1.82-1.82"/><line class="cls-1" x1="49.41" y1="88.79" x2="54.74" y2="94.13"/><line class="cls-4" x1="58.29" y1="73.58" x2="62.23" y2="77.53"/><line class="cls-4" x1="62.67" y1="69.2" x2="66.62" y2="73.15"/><line class="cls-4" x1="67.05" y1="64.82" x2="71" y2="68.77"/><line class="cls-4" x1="71.43" y1="60.44" x2="75.38" y2="64.38"/><line class="cls-4" x1="75.82" y1="56.06" x2="79.76" y2="60"/><line class="cls-4" x1="80.2" y1="51.68" x2="84.14" y2="55.62"/><line class="cls-4" x1="84.58" y1="47.29" x2="88.52" y2="51.24"/></g></g></svg>