<svg xmlns="http://www.w3.org/2000/svg" viewBox="0 0 692 274"><defs><style>.cls-1,.cls-3{fill:#f4a261;}.cls-2{fill:#fff;}.cls-3{stroke:#fff;stroke-miterlimit:10;}</style></defs><g id="Calque_2" data-name="Calque 2"><g id="Calque_1-2" data-name="Calque 1"><rect class="cls-1" x="226" width="330" height="224" rx="10.47"/><rect class="cls-1" x="633" y="169" width="59" height="105" rx="10.47"/><rect class="cls-2" x="243" y="19" width="296" height="163"/><rect class="cls-2" x="638.5" y="182" width="48" height="77"/><path class="cls-1" d="M468,257H432c-15-3-12-26-12-26H362s3,23-12,26H314s-8,0-9,17H477C476,257,468,257,468,257Z"/><path class="cls-1" d="M176,258v2H122v-2L0,259v7s1,8,14,8H284c13,0,14-8,14-8v-7Z"/><rect class="cls-1" x="36" y="109" width="226" height="144" rx="10.47"/><rect class="cls-2" x="52" y="124" width="194" height="115"/><rect class="cls-1" x="497" y="118" width="118" height="156" rx="10.47"/><rect class="cls-2" x="507.5" y="131" width="97" height="122"/><circle class="cls-2" cx="149" cy="116" r="2.83"/><circle class="cls-2" cx="556" cy="124" r="2.83"/><circle class="cls-3" cx="556" cy="262.5" r="3.89"/><circle class="cls-2" cx="663" cy="176" r="2.83"/></g></g></svg>