<?xml version="1.0" encoding="utf-8"?>
<!-- Generator: Adobe Illustrator 24.1.2, SVG Export Plug-In . SVG Version: 6.00 Build 0)  -->
<svg version="1.1" id="_x30_315a8ac-3017-4957-93c4-92e478eebb20"
	 xmlns="http://www.w3.org/2000/svg" xmlns:xlink="http://www.w3.org/1999/xlink" x="0px" y="0px" viewBox="0 0 1036 612"
	 style="enable-background:new 0 0 1036 612;" xml:space="preserve">
<style type="text/css">
	.st0{fill:#535461;}
	.st1{fill:#FFFFFF;}
	.st2{fill:url(#SVGID_1_);}
	.st3{fill:url(#SVGID_2_);}
	.st4{fill:#DDDBE2;}
</style>
<path class="st0" d="M584.1,123.7v281.5c0,12.8-8.4,23.3-18.8,23.3H175.4c-10.4,0-18.8-10.4-18.8-23.3V123.7
	c0-12.8,8.4-23.3,18.8-23.3h389.8C575.7,100.4,584.1,110.8,584.1,123.7z"/>
<rect x="166.5" y="148.2" class="st1" width="408.6" height="267.9"/>
<ellipse transform="matrix(0.9951 -9.853776e-02 9.853776e-02 0.9951 -10.503 37.1013)" class="st1" cx="370.4" cy="124.9" rx="4.5" ry="4.5"/>
<linearGradient id="SVGID_1_" gradientUnits="userSpaceOnUse" x1="1229.6897" y1="-21.61" x2="1229.6897" y2="312.35" gradientTransform="matrix(-1 0 0 -1 1751.9399 470)">
	<stop  offset="0" style="stop-color:#808080;stop-opacity:0.25"/>
	<stop  offset="0.54" style="stop-color:#808080;stop-opacity:0.12"/>
	<stop  offset="1" style="stop-color:#808080;stop-opacity:0.1"/>
</linearGradient>
<path class="st2" d="M396.3,177.1v295c0,10.8,8.8,19.5,19.5,19.5h212.9c10.8,0,19.5-8.7,19.5-19.5v-295c0-10.8-8.8-19.5-19.5-19.5
	H415.8C405,157.6,396.3,166.4,396.3,177.1z"/>
<path class="st0" d="M645.3,181.6v287c0,11-9,20-20,20h-206c-11,0-20-9-20-20v-287c0-11,9-20,20-20h206
	C636.3,161.6,645.3,170.6,645.3,181.6z"/>
<rect x="411.8" y="192.6" class="st1" width="221" height="265.1"/>
<circle class="st1" cx="523.3" cy="176.6" r="3"/>
<circle class="st1" cx="523.3" cy="472.6" r="9"/>
<linearGradient id="SVGID_2_" gradientUnits="userSpaceOnUse" x1="1119.1897" y1="-48.65" x2="1119.1897" y2="212.35" gradientTransform="matrix(-1 0 0 -1 1751.9399 470)">
	<stop  offset="0" style="stop-color:#808080;stop-opacity:0.25"/>
	<stop  offset="0.54" style="stop-color:#808080;stop-opacity:0.12"/>
	<stop  offset="1" style="stop-color:#808080;stop-opacity:0.1"/>
</linearGradient>
<path class="st3" d="M578.1,257.6c-6,0-10.8,4.8-10.8,10.8v239.4l0,0c0,6,4.9,10.8,10.8,10.8h109.3l0,0c6,0,10.8-4.8,10.8-10.8
	V268.4v0c0-6-4.9-10.8-10.8-10.8H578.1L578.1,257.6z"/>
<path class="st0" d="M697.3,270.6v236c0,6.1-4.9,11-11,11h-107c-6.1,0-11-4.9-11-11v-236c0-6.1,4.9-11,11-11h107
	C692.3,259.6,697.3,264.6,697.3,270.6z"/>
<rect x="578.3" y="283.7" class="st1" width="110" height="210"/>
<circle class="st1" cx="645.8" cy="271.6" r="1"/>
<path class="st1" d="M640.8,271.6L640.8,271.6c0,0.6-0.4,1-1,1h-20c-0.6,0-1-0.4-1-1l0,0c0-0.6,0.4-1,1-1h20
	C640.3,270.6,640.8,271.1,640.8,271.6z"/>
<circle class="st1" cx="633.3" cy="503.6" r="7"/>
<path class="st4" d="M292,541.9c0.9,1.3,1.7,2.2,2.1,2.3l0.2,0.1c-0.5-1-1-1.7-1.5-1.8C292.5,542.3,292.2,542.1,292,541.9z"/>
</svg>
