<svg xmlns="http://www.w3.org/2000/svg" viewBox="0 0 911.26 242.04"><defs><style>.cls-1{fill:#f4a261;}.cls-2{fill:#37919c;}.cls-3{fill:#202c39;}.cls-4{fill:#43c3ce;}</style></defs><g id="Calque_2" data-name="Calque 2"><g id="Calque_1-2" data-name="Calque 1"><path class="cls-1" d="M121,194.71a73.69,73.69,0,1,1,34.32-138.9l7.42-13.58A89.16,89.16,0,1,0,210.17,121H194.71A73.69,73.69,0,0,1,121,194.71Z"/><path class="cls-2" d="M121,78.9a40.37,40.37,0,0,1,18.44,4.43l7.45-13.64a56.13,56.13,0,1,0,30.24,49.8H161.61A40.59,40.59,0,1,1,121,78.9Z"/><path class="cls-3" d="M227,121a105.93,105.93,0,1,1-56.16-93.54l7.23-13.22A121,121,0,1,0,242,121Z"/><path class="cls-4" d="M239.74,46.81,112.88,103.06A20,20,0,1,0,134,135.77h0Z"/><path class="cls-4" d="M306.84,70.47h29q6.21,32.72,9.77,56.27l2.5-15.68q1.51-9.16,3.26-17.87l4.46-22.72h29.62L397,171.57H374.24l-6.14-69.52-14.16,69.52H338.42L323.57,101.9l-5.9,69.67H295.93Z"/><path class="cls-4" d="M485.79,171.57H461.94l-3.87-16.89H433.84l-4,16.89H406.42l26.81-101.1H459Zm-32.11-35.06q-5.15-22.57-7.72-42.94h-.31q-2.72,21-7.65,42.94Z"/><path class="cls-1" d="M565.54,114.92v17q0,19.7-9.51,30.94t-26,11.24q-18.48,0-28.55-13.89T491.4,120.53q0-26,10-39.42t29.35-13.44q21.66,0,31.35,23.1l-21.89,9a30.81,30.81,0,0,0-5.07-7.08,9,9,0,0,0-6.44-2.24q-7,0-9.88,7.31t-2.92,23.67q0,15.23,3.3,22.38T529.72,151q11.5,0,11.89-16.43H530.93V114.92Z"/><path class="cls-1" d="M582.43,70.47h46.42V92H605.37v18.63h20.38v21H605.37V150H629v21.58H582.43Z"/><path class="cls-1" d="M647.1,169.68V146.13q10.9,6.36,18.33,6.36a9.48,9.48,0,0,0,6.82-2.39,8.36,8.36,0,0,0,2.5-6.32,9.23,9.23,0,0,0-2-5.68,38.28,38.28,0,0,0-6.93-6.44q-11.89-9.09-17.23-16.92a30.34,30.34,0,0,1-5.34-17.46q0-13.11,8.26-21.36t21.35-8.25a47.83,47.83,0,0,1,19.24,4.16V94.48q-10.23-5.61-16.59-5.61A10,10,0,0,0,668.8,91a7.07,7.07,0,0,0-2.46,5.71q0,6.36,11.44,14.32A69.44,69.44,0,0,1,691.6,124.2a30.16,30.16,0,0,1,7,19.73q0,13.11-9.16,21.7t-23.25,8.59A43.7,43.7,0,0,1,647.1,169.68Z"/><path class="cls-1" d="M707.46,70.47h54.76v23.1H746.39v78H723.14v-78H707.46Z"/><path class="cls-4" d="M826.59,147.72v24a42.81,42.81,0,0,1-13,2.35q-19.92,0-32.31-14.95t-12.38-39.35q0-22.63,12.5-37.37T813,67.67a44.67,44.67,0,0,1,13.63,2V93.72a39.45,39.45,0,0,0-12.42-2.2q-8.94,0-14.84,8.18t-5.91,20.83q0,13.64,6,21.55A18.86,18.86,0,0,0,815.23,150,35.37,35.37,0,0,0,826.59,147.72Z"/><path class="cls-4" d="M874.38,174.07q-18.33,0-28-14t-9.61-40.55q0-24.47,9.65-38.13t26.92-13.67q18.4,0,28.14,13.7t9.73,39.16q0,25.44-9.58,39.49T874.38,174.07Zm-.83-83.46q-12.43,0-12.42,29.16,0,18.78,3.14,25.07t9.12,6.29q6.45,0,9.89-6.29t3.44-24.61Q886.72,90.62,873.55,90.61Z"/></g></g></svg>