<svg xmlns="http://www.w3.org/2000/svg" viewBox="0 0 511.37 651.44"><defs><style>.cls-1{fill:#f4a261;}.cls-2{fill:#37919c;}.cls-3{fill:#202c39;}.cls-4{fill:#43c3ce;}</style></defs><g id="Calque_2" data-name="Calque 2"><g id="Calque_1-2" data-name="Calque 1"><path class="cls-1" d="M255.69,336.12A127.21,127.21,0,1,1,314.92,96.34L327.73,72.9a153.9,153.9,0,1,0,81.85,136H382.89A127.21,127.21,0,0,1,255.69,336.12Z"/><path class="cls-2" d="M255.69,136.19a69.81,69.81,0,0,1,31.83,7.66l12.86-23.54a96.88,96.88,0,1,0,52.2,85.95H325.76a70.07,70.07,0,1,1-70.07-70.07Z"/><path class="cls-3" d="M438.59,208.91A182.85,182.85,0,1,1,341.65,47.44l12.47-22.83A208,208,0,0,0,255.69,0C140.31,0,46.78,93.53,46.78,208.91s93.53,208.91,208.91,208.91S464.6,324.29,464.6,208.91Z"/><path class="cls-4" d="M460.63,80.8l-219,97.1A34.44,34.44,0,1,0,278,234.37h0Z"/><path class="cls-4" d="M7.67,469H28.06q4.36,23,6.87,39.56l1.75-11q1.07-6.45,2.29-12.57l3.14-16H62.93L71,540h-16l-4.31-48.87L40.78,540H29.87l-10.44-49-4.15,49H0Z"/><path class="cls-4" d="M133.47,540H116.7L114,528.16H97L94.13,540H77.68L96.53,469h18.1ZM110.9,515.38q-3.62-15.86-5.43-30.18h-.21q-1.92,14.74-5.38,30.18Z"/><path class="cls-1" d="M217.22,500.21v11.93q0,13.83-6.68,21.74t-18.29,7.91q-13,0-20.07-9.77t-7.08-27.87q0-18.25,7.05-27.71T192.78,467q15.22,0,22,16.24l-15.38,6.33a21.88,21.88,0,0,0-3.57-5,6.32,6.32,0,0,0-4.52-1.57q-4.9,0-6.95,5.14t-2.05,16.64q0,10.69,2.31,15.73t7.38,5q8.09,0,8.36-11.55h-7.51V500.21Z"/><path class="cls-1" d="M229.09,469h32.64v15.12h-16.5v13.1h14.32v14.74H245.23v12.94h16.61V540H229.09Z"/><path class="cls-1" d="M274.56,538.7V522.15q7.67,4.47,12.88,4.47a6.67,6.67,0,0,0,4.8-1.68,5.87,5.87,0,0,0,1.75-4.45,6.5,6.5,0,0,0-1.41-4,26.54,26.54,0,0,0-4.87-4.52q-8.35-6.39-12.11-11.9a21.35,21.35,0,0,1-3.75-12.27q0-9.21,5.8-15t15-5.8a33.65,33.65,0,0,1,13.53,2.93v15.92q-7.2-3.94-11.66-3.94a7.07,7.07,0,0,0-4.72,1.46,5,5,0,0,0-1.73,4q0,4.47,8,10.06a48.63,48.63,0,0,1,9.72,9.29,21.23,21.23,0,0,1,4.92,13.87,20,20,0,0,1-6.44,15.25q-6.44,6-16.34,6A30.76,30.76,0,0,1,274.56,538.7Z"/><path class="cls-1" d="M317,469h38.5V485.2H344.36V540H328V485.2H317Z"/><path class="cls-1" d="M366.08,469h16.13V540H366.08Z"/><path class="cls-1" d="M421.13,541.79q-12.88,0-19.64-9.88t-6.77-28.51q0-17.19,6.79-26.8T420.44,467q12.93,0,19.78,9.63t6.84,27.53q0,17.9-6.74,27.76T421.13,541.79Zm-.58-58.67q-8.74,0-8.74,20.5,0,13.2,2.21,17.62t6.42,4.42q4.51,0,6.95-4.42t2.42-17.3Q429.81,483.12,420.55,483.12Z"/><path class="cls-1" d="M459,469h16.29l20.5,41-.59-7.66V469h16.13V540H494.82l-20.08-40.35.43,8.84V540H459Z"/><path class="cls-4" d="M65.3,632.91v16.88a30.21,30.21,0,0,1-9.16,1.65q-14,0-22.71-10.51t-8.7-27.66q0-15.93,8.79-26.28a27.86,27.86,0,0,1,22.2-10.35A31.68,31.68,0,0,1,65.3,578V595a27.64,27.64,0,0,0-8.73-1.54q-6.28,0-10.44,5.75T42,613.8q0,9.59,4.18,15.15a13.25,13.25,0,0,0,11.15,5.56A24.67,24.67,0,0,0,65.3,632.91Z"/><path class="cls-4" d="M98.89,651.44q-12.89,0-19.64-9.88t-6.76-28.51q0-17.19,6.78-26.8t18.93-9.61q12.94,0,19.78,9.63t6.84,27.53q0,17.9-6.73,27.76T98.89,651.44Zm-.58-58.67q-8.73,0-8.73,20.5,0,13.2,2.21,17.62t6.41,4.42c3,0,5.33-1.47,7-4.42s2.42-8.71,2.42-17.3Q107.57,592.77,98.31,592.77Z"/><path class="cls-4" d="M136.8,578.61h16.29l20.5,41-.59-7.66V578.61h16.14v71.07H172.58l-20.07-40.35.42,8.84v31.51H136.8Z"/><path class="cls-4" d="M204.42,578.61h16.29l20.5,41-.59-7.66V578.61h16.13v71.07H240.19l-20.07-40.35.43,8.84v31.51H204.42Z"/><path class="cls-4" d="M272,578.61h32.64v15.12H288.16v13.09h14.32v14.75H288.16v12.94h16.61v15.17H272Z"/><path class="cls-4" d="M354.82,632.91v16.88a30.21,30.21,0,0,1-9.16,1.65q-14,0-22.71-10.51t-8.7-27.66q0-15.93,8.79-26.28a27.86,27.86,0,0,1,22.2-10.35,31.68,31.68,0,0,1,9.58,1.38V595a27.64,27.64,0,0,0-8.73-1.54q-6.29,0-10.44,5.75T331.5,613.8q0,9.59,4.18,15.15a13.25,13.25,0,0,0,11.15,5.56A24.67,24.67,0,0,0,354.82,632.91Z"/><path class="cls-4" d="M359.93,578.61h38.49v16.24H387.3v54.83H371V594.85h-11Z"/><path class="cls-4" d="M408.43,578.61h32.64v15.12H424.56v13.09h14.33v14.75H424.56v12.94h16.62v15.17H408.43Zm6.87-5.7L422.75,557h16.77l-14.69,15.92Z"/><path class="cls-4" d="M453.9,578.61h32.64v15.12H470v13.09h14.32v14.75H470v12.94h16.61v15.17H453.9Z"/></g></g></svg>