<svg id="Calque_1" data-name="Calque 1" xmlns="http://www.w3.org/2000/svg" viewBox="0 0 840.17 211.06"><defs><style>.cls-1{fill:#f4a261;}.cls-2{fill:#43c3ce;}</style></defs><path class="cls-1" d="M105,56.88V47.39a64,64,0,1,0,64,64h-9.5A54.52,54.52,0,1,1,105,56.88ZM177.5,111.4A72.51,72.51,0,1,1,105,38.9V29.4a82,82,0,1,0,82,82Z"/><path class="cls-2" d="M179.41,165.92v9.5a64,64,0,1,0-64-64h9.49a54.52,54.52,0,1,1,54.52,54.52Zm-72.5-54.52a72.51,72.51,0,1,1,72.5,72.51v9.49a82,82,0,1,0-82-82Z"/><path class="cls-2" d="M327.56,79.22v8.19q9-10.5,18.26-10.51,11.16,0,14.42,11.53a43.14,43.14,0,0,1,9.46-8.77A18.86,18.86,0,0,1,380,76.9q14.71,0,14.71,20.59V145.9H373.58V106.55q0-9.64-6.23-9.64T361,106.4v39.5H339.88V105.39a10.2,10.2,0,0,0-1.71-6.09,5.14,5.14,0,0,0-4.38-2.39,5.33,5.33,0,0,0-4.53,2.32,10.4,10.4,0,0,0-1.7,6.3V145.9h-21V79.22Z"/><path class="cls-2" d="M443.38,145.9v-8.77h-.29a35,35,0,0,1-7.43,8.34,13.77,13.77,0,0,1-8.45,2.68q-9.49,0-15.14-9.71t-5.66-26.38q0-16,5.73-25.52t15.07-9.49a14.11,14.11,0,0,1,8.48,2.5,32.22,32.22,0,0,1,7.25,8h.29V79.22h21.09V145.9Zm0-33.7q0-16.59-8.12-16.6t-8.19,16.6q0,17.25,8.48,17.25Q443.38,129.45,443.38,112.2Z"/><path class="cls-1" d="M513.9,146.19V136.7q-6.16,9.06-14.64,9.06a18.9,18.9,0,0,1-16.67-8.95q-5.94-9-5.95-25.33,0-16,5.8-25.15t15.87-9.14q9,0,15.15,9.06h.29v-7h21.09V141a43.43,43.43,0,0,1-3,16.09,23.52,23.52,0,0,1-10.62,12,33,33,0,0,1-16.67,4.35,32.29,32.29,0,0,1-17-4.85q-8-4.86-10.36-16.24H496q3.27,5.07,8.12,5.07a8.88,8.88,0,0,0,7-3.22A11.65,11.65,0,0,0,513.9,146.19Zm0-35Q513.9,95,505.78,95q-4,0-6.31,3.92t-2.32,10.87q0,18.25,8.48,18.26Q513.9,128.07,513.9,111.19Z"/><path class="cls-1" d="M582.24,125.54H600Q594.93,148,574.63,148q-12.68,0-20.07-9.64t-7.4-26.59q0-15.81,7.4-25.34A23.62,23.62,0,0,1,574.2,76.9a25,25,0,0,1,14.2,4.61,26.52,26.52,0,0,1,9.93,12.21q3.12,7.61,3.48,24H566.66q.44,14.87,8.26,14.86a6.88,6.88,0,0,0,4.79-2A8.22,8.22,0,0,0,582.24,125.54ZM567,106.26h15.29q-.21-7-2-10.4a5.79,5.79,0,0,0-5.51-3.37,6.34,6.34,0,0,0-6,3.26Q567,99,567,106.26Z"/><path class="cls-1" d="M616.6,124.38q10.8,6.38,15.58,6.37a6.88,6.88,0,0,0,4.35-1.34,4,4,0,0,0,1.74-3.22,3.28,3.28,0,0,0-1.45-3q-1.46-.94-10.87-5.08-7.55-3.33-10.87-7.86A18.46,18.46,0,0,1,611.74,99a20.81,20.81,0,0,1,6.63-15.87Q625,76.9,635.3,76.9q10,0,24.5,8l-8.12,15q-9.42-5.79-15.44-5.8-5.22,0-5.22,4.2a4.35,4.35,0,0,0,1.92,3.52,27.56,27.56,0,0,0,7,3.3q9.49,3.33,13.8,8a16.55,16.55,0,0,1,4.32,11.74,22.08,22.08,0,0,1-6.82,16.67Q644.43,148,633.85,148q-11.46,0-24.5-8Z"/><path class="cls-1" d="M673.57,61.47h21.09V79.22h8.19V96.76h-8.34V145.9H673.57V96.62h-8V79.22h8Z"/><path class="cls-2" d="M749.74,125.54v17.39Q742.2,148,734.59,148q-11.24,0-18-9.74t-6.78-26.2q0-15.59,7-25.37t18-9.79q7.68,0,15.15,5.44V99.59a16.9,16.9,0,0,0-7.69-2.25,9.82,9.82,0,0,0-8.19,4.1q-3.1,4.09-3.11,10.91,0,7.17,3,11.3a9.7,9.7,0,0,0,8.26,4.13A17,17,0,0,0,749.74,125.54Z"/><path class="cls-2" d="M787.21,76.9q14.43,0,22,9.61t7.54,26.71q0,16.74-7.83,25.91t-21.67,9.16q-13.26,0-21.05-9.35t-7.79-25.72q0-17.11,7.42-26.71T787.21,76.9Zm.15,52.55a6.64,6.64,0,0,0,6.19-3.84q2.07-3.84,2.07-13.12t-2-12.9a6.54,6.54,0,0,0-6.09-3.7,6.69,6.69,0,0,0-6.09,3.59q-2.1,3.58-2.1,13.16Q779.31,129.45,787.36,129.45Z"/></svg>