<?xml version="1.0" encoding="utf-8"?>
<!-- Generator: Adobe Illustrator 24.1.2, SVG Export Plug-In . SVG Version: 6.00 Build 0)  -->
<svg version="1.1" id="Calque_1" xmlns="http://www.w3.org/2000/svg" xmlns:xlink="http://www.w3.org/1999/xlink" x="0px" y="0px"
	 viewBox="0 0 448 512" style="enable-background:new 0 0 448 512;" xml:space="preserve">
<style type="text/css">
	.st0{fill:#212121;}
</style>
<g id="Calque_2_1_">
	<g id="Calque_1-2">
		<g id="Calque_2-2">
			<g id="Calque_1-2-2">
				<path class="st0" d="M224,256c70.7,0,128-57.3,128-128S294.7,0,224,0S96,57.3,96,128S153.3,256,224,256z M313.6,288h-16.7
					c-46.3,21.3-99.5,21.3-145.8,0h-16.7C60.2,288,0,348.2,0,422.4V464c0,26.5,21.5,48,48,48l0,0h352c26.5,0,48-21.5,48-48l0,0l0,0
					v-41.6C448,348.2,387.8,288,313.6,288z"/>
			</g>
		</g>
	</g>
</g>
</svg>
